<svg xmlns="http://www.w3.org/2000/svg" xmlns:xlink="http://www.w3.org/1999/xlink" width="39" height="39"><path fill-rule="evenodd" fill="#A3ACB5" d="M26.824 35.146a12.104 12.104 0 01-3.779-.614 8.91 8.91 0 01-7.751 4.455 8.962 8.962 0 01-3.574-.729C7.189 36.3 5.102 31.042 7.058 26.512a14.08 14.08 0 01-5.991-8.125C-1 10.889 3.405 3.133 10.905 1.066c7.5-2.066 15.255 2.34 17.321 9.838a12.16 12.16 0 0110.769 12.089c-.005 6.717-5.454 12.158-12.171 12.153zm-11.53 2.562a7.641 7.641 0 006.533-3.634c-.028-.012-.056-.029-.084-.042-.23-.106-.458-.222-.683-.342l-.202-.112a11.87 11.87 0 01-.757-.462 12.227 12.227 0 01-4.025-4.454c-.473.051-.948.078-1.422.08a13.518 13.518 0 01-6.477-1.595 7.662 7.662 0 007.117 10.561zm11.81-26.073a12.812 12.812 0 00-12.447-9.791C7.582 1.842 1.844 7.574 1.842 14.649c0 7.075 5.736 12.811 12.812 12.811a12.12 12.12 0 001.681-.113l.024-.004a12.428 12.428 0 003.529-1.001c.745-.33 1.454-.736 2.118-1.21a12.81 12.81 0 005.459-10.483 12.558 12.558 0 00-.361-3.014zm1.431.602a14.07 14.07 0 01-5.785 13.942h-.004a13.55 13.55 0 01-3.194 1.682c-.09.034-.179.063-.269.095-.207.071-.416.142-.627.202-.095.028-.191.057-.287.084-.235.062-.472.121-.709.172-.062.013-.12.03-.184.042l-.045.01.051.083c.182.307.379.603.591.89.02.027.039.057.06.084.221.291.456.571.705.837a11.32 11.32 0 00.923.892c.049.042.1.08.15.122a10.511 10.511 0 003.051 1.781c1.232.473 2.542.714 3.862.709a10.884 10.884 0 0010.718-9.146c.96-5.934-3.073-11.521-9.007-12.481zm5.335 10.098h2.563v1.282H33.87v-1.282zm-1.265-3.434l2.219-1.281.64 1.107-2.219 1.282-.64-1.108zM29.793 29.4l1.11-.64 1.281 2.22-1.11.64-1.281-2.22zm-.001-12.844l1.28-2.22 1.11.64-1.281 2.22-1.109-.64zm5.673 10.672l-.641 1.109-2.218-1.28.64-1.109 2.219 1.28zm-9.281 2.793h1.281v2.563h-1.281v-2.563zm-4.72.955l1.281-2.219 1.11.642-1.281 2.219-1.11-.642zm-.399-6.75a11.252 11.252 0 01-2.774 1.364h-.004a11.359 11.359 0 01-3.633.589c-.913.001-1.822-.11-2.708-.329h-.005a11.224 11.224 0 01-2.876-1.121l-.002.001a11.551 11.551 0 01-3.993-3.672C1.528 15.765 2.947 8.606 8.24 5.065c5.292-3.542 12.453-2.123 15.995 3.168 3.541 5.292 2.122 12.452-3.17 15.993zM14.647 4.394c-5.66.005-10.246 4.595-10.242 10.255a10.272 10.272 0 007.842 9.959h.008a10.26 10.26 0 005.63-.236h.004a9.951 9.951 0 002.461-1.21 10.245 10.245 0 004.552-8.527C24.899 8.977 20.307 4.39 14.647 4.394zm2.569 17.3h-5.125a.64.64 0 010-1.279h1.922V9.791l-1.789 1.789a.642.642 0 01-.906-.907l2.883-2.881a.641.641 0 011.093.454v12.169h1.922a.64.64 0 110 1.279zm-1.922 13.452a5.058 5.058 0 002.278-.535l.571 1.147a6.316 6.316 0 01-2.849.669 6.412 6.412 0 01-6.406-6.406h1.282a5.131 5.131 0 005.124 5.125z"/></svg>