<svg xmlns="http://www.w3.org/2000/svg" xmlns:xlink="http://www.w3.org/1999/xlink" width="40" height="35"><path fill-rule="evenodd" fill="#A3ACB5" d="M39.812 32.288l-1.579-5.502a.82.82 0 00-.188-.3c-.977-2.977-3.383-5.276-6.429-6.066l-.451-.075a1.879 1.879 0 00-1.917.602c-1.654 1.885-3.759 2.035-5.977 2.035-2.218 0-4.324-.15-5.978-2.035a1.878 1.878 0 00-1.917-.602l-.451.112a9.336 9.336 0 00-5.489 4.031H4.699c-.037 0-.037 0-.075-.036 0-.038-.038-.077-.038-.152l.978-3.503c.864-2.751 2.519-3.581 5.752-4.408a.741.741 0 00.338-.189c.263.227.564.415.865.565.113.075.225.075.338.075.263 0 .526-.15.677-.413a.757.757 0 00-.339-1.018c-1.729-.904-2.97-3.465-2.97-6.105 0-2.334 1.918-4.256 4.249-4.256.451 0 .864.076 1.278.189a8.63 8.63 0 00-.639 3.278c0 6.442 3.872 11.866 8.458 11.866 4.512 0 8.497-5.536 8.497-11.866 0-4.71-3.797-8.515-8.497-8.515a8.45 8.45 0 00-7.105 3.88 6.01 6.01 0 00-1.992-.338c-2.03 0-3.835 1.092-4.85 2.713-.075-.077-.15-.114-.226-.152-.563-.3-1.127-.414-1.766-.414-2.106-.039-3.797 1.659-3.797 3.767 0 1.206.338 2.336.864 3.241-1.729.452-3.271 1.13-3.985 3.427L.113 18.31c-.113.377-.038.792.188 1.093.225.339.639.526 1.052.526h2.895c-.038.152-.113.302-.15.452l-.978 3.542a1.541 1.541 0 00.301 1.433c.301.413.752.64 1.278.64h3.985c-.113.262-.188.527-.263.79l-1.579 5.539c-.15.64-.038 1.318.376 1.845.414.528 1.015.829 1.654.829h28.91c.639 0 1.278-.301 1.654-.829a2.097 2.097 0 00.376-1.882zM17.368 5.349a.482.482 0 00.113-.15c.038-.038.038-.114.075-.151a6.862 6.862 0 016.015-3.541c3.121 0 5.752 2.071 6.654 4.899a3.539 3.539 0 01-3.533-1.395c-.264-.34-.715-.416-1.053-.152a.637.637 0 00-.263.378c-.038.037-.038.076-.075.112-1.053 2.148-4.587 3.053-8.609 2.26a7.866 7.866 0 01.676-2.26zm2.106 4.032c3.007 0 5.488-.943 6.767-2.713a5.016 5.016 0 003.345 1.282c.301 0 .639-.039.94-.113.038.226.038.413.038.64 0 5.538-3.271 10.396-6.993 10.396-3.571 0-6.691-4.481-6.955-9.756.978.187 1.955.264 2.858.264zm-17.82 9.041l.526-1.882c.452-1.546 1.391-1.998 3.271-2.45.113-.037.226-.075.301-.15.188.15.338.263.564.378.112.074.225.074.338.074.263 0 .526-.15.677-.414a.778.778 0 00-.301-1.018c-.977-.527-1.692-1.998-1.692-3.504a2.28 2.28 0 012.294-2.298c.413 0 .751.075 1.09.265.113.037.188.074.3.074a5.729 5.729 0 00-.3 1.807c0 2.149.714 4.259 1.842 5.728-2.256.566-4.248 1.318-5.564 3.39H1.654zm36.617 14.846c-.076.075-.226.225-.489.225H8.872c-.263 0-.413-.15-.489-.225a.69.69 0 01-.112-.529L9.85 27.24a7.682 7.682 0 015.451-5.313l.451-.113c.113-.038.301.038.413.151 2.068 2.375 4.624 2.562 7.106 2.562 2.481 0 5.037-.187 7.105-2.562a.482.482 0 01.451-.151l.451.113a7.75 7.75 0 015.451 5.313l.677 2.335a.63.63 0 00.15.264l.827 2.863a.748.748 0 01-.112.566z"/></svg>