<svg xmlns="http://www.w3.org/2000/svg" xmlns:xlink="http://www.w3.org/1999/xlink" width="55" height="37"><defs><linearGradient id="PSgrad_0" x1="100%" x2="0%" y1="0%" y2="0%"><stop offset="0%" stop-color="#FF6B00"/><stop offset="100%" stop-color="#A6C93A"/></linearGradient></defs><path fill-rule="evenodd" fill="#A8CA3F" d="M53.854 36.999h-2.289l-.003.001h-6.875l-.002-.001h-6.87l-.003.001h-6.875l-.002-.001h-6.87l-.003.001h-6.875l-.002-.001H1.146A1.15 1.15 0 010 35.844c0-.639.513-1.157 1.146-1.157h1.146V21.969c0-.64.513-1.156 1.145-1.156h6.875a1.15 1.15 0 011.146 1.156v12.718h4.584V10.406c0-.638.513-1.156 1.145-1.156h6.875c.633 0 1.146.518 1.146 1.156v24.281h4.584V15.031c0-.638.513-1.156 1.145-1.156h6.875a1.15 1.15 0 011.146 1.156v19.656h4.584V1.156c0-.638.513-1.156 1.145-1.156h6.875c.633 0 1.146.518 1.146 1.156v33.531h1.146c.633 0 1.146.518 1.146 1.157a1.15 1.15 0 01-1.146 1.155zM9.167 23.125H4.583v11.562h4.584V23.125zm13.75-11.563h-4.584v23.125h4.584V11.562zm13.75 4.625h-4.584v18.5h4.584v-18.5zm13.75-13.875h-4.584v32.375h4.584V2.312z"/><path fill="url(#PSgrad_0)" d="M53.854 36.999h-2.289l-.003.001h-6.875l-.002-.001h-6.87l-.003.001h-6.875l-.002-.001h-6.87l-.003.001h-6.875l-.002-.001H1.146A1.15 1.15 0 010 35.844c0-.639.513-1.157 1.146-1.157h1.146V21.969c0-.64.513-1.156 1.145-1.156h6.875a1.15 1.15 0 011.146 1.156v12.718h4.584V10.406c0-.638.513-1.156 1.145-1.156h6.875c.633 0 1.146.518 1.146 1.156v24.281h4.584V15.031c0-.638.513-1.156 1.145-1.156h6.875a1.15 1.15 0 011.146 1.156v19.656h4.584V1.156c0-.638.513-1.156 1.145-1.156h6.875c.633 0 1.146.518 1.146 1.156v33.531h1.146c.633 0 1.146.518 1.146 1.157a1.15 1.15 0 01-1.146 1.155zM9.167 23.125H4.583v11.562h4.584V23.125zm13.75-11.563h-4.584v23.125h4.584V11.562zm13.75 4.625h-4.584v18.5h4.584v-18.5zm13.75-13.875h-4.584v32.375h4.584V2.312z"/></svg>