<svg xmlns="http://www.w3.org/2000/svg" xmlns:xlink="http://www.w3.org/1999/xlink" width="19" height="23"><path fill-rule="evenodd" fill="#E87845" d="M18.769 20.423a.638.638 0 01-.24.301c-.139.09-3.462 2.277-9.022 2.277-5.56 0-8.883-2.183-9.022-2.277a.615.615 0 01-.24-.301c-.245-.639-.24-1.91-.236-2.155v-.015c.005-.038.005-.077.005-.121.028-.94.088-3.143 2.094-3.854.013-.003.027-.009.046-.013 2.093-.55 3.817-1.786 3.836-1.8a.608.608 0 01.869.159.65.65 0 01-.153.891c-.078.053-1.918 1.378-4.219 1.988-1.077.396-1.197 1.582-1.23 2.666 0 .046-.004.084-.004.12-.01.427.023 1.092.097 1.471.753.44 3.706 1.957 8.152 1.957 4.465 0 7.4-1.511 8.149-1.952.074-.379.101-1.042.097-1.47-.005-.039-.005-.078-.005-.119-.032-1.086-.152-2.27-1.229-2.67-2.302-.609-4.142-1.929-4.22-1.987a.652.652 0 01-.153-.893.612.612 0 01.869-.156c.019.014 1.752 1.249 3.836 1.799.014.006.033.009.047.014 2.006.706 2.065 2.909 2.093 3.853 0 .043.005.081.005.12v.016c.005.246.009 1.516-.222 2.151zm-9.202-8.028h-.148c-1.354-.028-2.449-.517-3.253-1.455-1.78-2.069-1.484-5.613-1.452-5.95.116-2.556 1.299-3.771 2.27-4.338C7.95.085 8.957-.002 9.47-.002h.079c.933.023 1.77.249 2.486.674.962.569 2.126 1.78 2.242 4.318.032.337.328 3.881-1.452 5.95-.808.938-1.904 1.427-3.258 1.455zm3.471-7.285c-.004-.01-.004-.026-.004-.039-.144-3.23-2.265-3.753-3.513-3.78h-.056c-1.007 0-3.36.368-3.512 3.78 0 .01-.005.024-.005.039-.004.026-.319 3.28 1.147 4.975.577.676 1.358 1.015 2.375 1.023h.046c1.022-.008 1.798-.347 2.381-1.023 1.469-1.702 1.146-4.943 1.141-4.975z"/></svg>