<svg xmlns="http://www.w3.org/2000/svg" xmlns:xlink="http://www.w3.org/1999/xlink" width="59" height="63"><path fill-rule="evenodd" fill="#FF6B00" d="M53.721 52.76l-14.782 8.562c-4.62 2.677-10.515 1.139-13.249-3.458H6.096C2.735 57.864 0 55.119 0 51.746V28.055c0-1.314.433-2.616 1.219-3.67l6.096-8.156v-3.472a3.674 3.674 0 01-2.438-3.46V3.67A3.669 3.669 0 018.535-.001h21.946a3.669 3.669 0 013.657 3.671v5.627a3.674 3.674 0 01-2.438 3.46v3.472l6.096 8.155a6.182 6.182 0 011.219 3.671v10.623l4.953-2.869c4.669-2.705 10.628-1.102 13.323 3.582 2.709 4.71 1.058 10.687-3.57 13.369zM2.439 51.746a3.668 3.668 0 003.657 3.671h18.552a9.84 9.84 0 01-.058-4.906H2.439v1.235zM31.7 3.67c0-.675-.547-1.224-1.22-1.224H8.535c-.673 0-1.22.549-1.22 1.224h.001v5.627c0 .675.546 1.223 1.219 1.223H30.48c.673 0 1.22-.548 1.22-1.223V3.67zm4.145 22.182l-5.974-7.991H18.288a1.222 1.222 0 01-1.219-1.224 1.22 1.22 0 011.219-1.223h10.973v-2.447H9.754v3.67c0 .264-.086.522-.244.734l-6.34 8.481a3.717 3.717 0 00-.706 1.795h34.087a3.711 3.711 0 00-.706-1.795zm.732 4.242H2.439v17.983h23.107a9.705 9.705 0 013.639-3.705l7.392-4.282v-9.996zm.446 12.563l-6.618 3.834c-3.477 2.014-4.708 6.481-2.677 10.028a7.299 7.299 0 009.992 2.685l6.618-3.834-7.315-12.713zm18.156-2.043a7.297 7.297 0 00-9.992-2.686l-6.052 3.506 7.315 12.713 6.052-3.507c3.473-2.011 4.708-6.494 2.677-10.026zm-30.795.122h-3.657v3.67a1.22 1.22 0 01-1.219 1.223c-.674 0-1.22-.547-1.22-1.223v-3.67h-3.657a1.22 1.22 0 01-1.219-1.223c0-.675.546-1.223 1.219-1.223h3.657v-3.67c0-.675.546-1.224 1.22-1.224.673 0 1.219.549 1.219 1.224v3.67h3.657c.674 0 1.22.548 1.22 1.223 0 .676-.546 1.223-1.22 1.223zM13.412 15.414a1.223 1.223 0 010 2.447c-.674 0-1.22-.549-1.22-1.224 0-.676.546-1.223 1.22-1.223z"/></svg>