<svg xmlns="http://www.w3.org/2000/svg" xmlns:xlink="http://www.w3.org/1999/xlink" width="70" height="66"><path fill-rule="evenodd" fill="#FF6B00" d="M29.494 1.612A1.292 1.292 0 0130.599.155a1.298 1.298 0 011.469 1.096l2.058 14.416a1.29 1.29 0 01-1.288 1.468 1.295 1.295 0 01-1.285-1.108L29.494 1.612zm34.265 4.93L62.741 7.55a1.28 1.28 0 000 1.821 1.311 1.311 0 001.839 0l1.017-1.008 1.018 1.008c.254.251.586.377.919.377.333 0 .665-.126.919-.377a1.278 1.278 0 000-1.821l-1.017-1.008 1.018-1.009a1.28 1.28 0 000-1.821 1.307 1.307 0 00-1.839 0L65.597 4.72l-1.018-1.008a1.306 1.306 0 00-1.838 0 1.278 1.278 0 000 1.821l1.018 1.009zM26.042 23.267a1.303 1.303 0 001.822.24 1.28 1.28 0 00.242-1.805L16.631 6.865a1.308 1.308 0 00-1.823-.239 1.28 1.28 0 00-.241 1.805l11.475 14.836zM4.707 11.241l.43.328c.236.18.515.267.791.267a1.3 1.3 0 001.032-.504 1.279 1.279 0 00-.239-1.805l-.43-.328a1.309 1.309 0 00-1.823.237 1.28 1.28 0 00.239 1.805zm-1.098 15.96a1.296 1.296 0 00-1.459 1.107 1.29 1.29 0 001.118 1.446l13.293 1.744a1.296 1.296 0 001.459-1.108 1.29 1.29 0 00-1.118-1.445L3.609 27.201zm5.335-12.733l12.635 9.619c.237.18.515.267.792.267a1.3 1.3 0 001.031-.503 1.28 1.28 0 00-.238-1.806l-12.636-9.619a1.307 1.307 0 00-1.822.237 1.279 1.279 0 00.238 1.805zM36.9 17.256a1.297 1.297 0 001.463-1.103l1.991-14.541A1.29 1.29 0 0039.24.164a1.295 1.295 0 00-1.462 1.101l-1.991 14.542a1.288 1.288 0 001.113 1.449zm29.632 18.198l-17.828-2.338a1.298 1.298 0 00-1.459 1.108 1.29 1.29 0 001.118 1.445l17.828 2.339A1.297 1.297 0 0067.65 36.9a1.29 1.29 0 00-1.118-1.446zm1.124-7.098a1.296 1.296 0 00-1.457-1.108l-13.376 1.734a1.29 1.29 0 00-1.12 1.444 1.295 1.295 0 001.457 1.109L66.536 29.8a1.289 1.289 0 001.12-1.444zm-8.354-15.895l-12.585 9.552a1.279 1.279 0 00-.241 1.805 1.3 1.3 0 001.033.505c.275 0 .553-.086.789-.265l12.585-9.552a1.28 1.28 0 00.241-1.805 1.308 1.308 0 00-1.822-.24zm-3.477-6.846a1.308 1.308 0 001.823-.236l.115-.147a1.28 1.28 0 00-.238-1.806 1.307 1.307 0 00-1.823.236l-.115.148a1.279 1.279 0 00.238 1.805zm2.314-2.985a1.3 1.3 0 001.822-.235l.122-.155a1.28 1.28 0 00-.238-1.807 1.308 1.308 0 00-1.822.235l-.122.157a1.279 1.279 0 00.238 1.805zM42.016 23.432c.236.18.514.266.791.266.39 0 .775-.173 1.031-.502L55.269 8.461a1.28 1.28 0 00-.238-1.806 1.31 1.31 0 00-1.823.236L41.777 21.627a1.279 1.279 0 00.239 1.805zM2.725 8.107a1.28 1.28 0 00-.239-1.806L2.26 6.13a1.307 1.307 0 00-1.823.237 1.278 1.278 0 00.239 1.804l.226.173a1.306 1.306 0 001.823-.237zm40.467 34.519a1.285 1.285 0 01-.515 1.364 1.31 1.31 0 01-1.468.017l-6.089-4.022-6.563 4.044a1.307 1.307 0 01-1.467-.063 1.283 1.283 0 01-.471-1.379l1.98-6.978-5.911-4.934a1.282 1.282 0 01-.392-1.403 1.297 1.297 0 011.177-.869l7.313-.291 2.91-7.094a1.304 1.304 0 012.423.038l2.539 6.8 7.71.549c.535.038.991.399 1.149.906a1.282 1.282 0 01-.437 1.39l-5.743 4.492 1.855 7.433zm-4.123-8.94l3.771-2.95-5.203-.372a1.297 1.297 0 01-1.126-.837l-1.668-4.465-1.964 4.788a1.301 1.301 0 01-1.152.802l-4.803.191 3.99 3.33c.39.326.552.847.414 1.333l-1.301 4.585 4.43-2.731a1.313 1.313 0 011.408.022l3.999 2.642-1.252-5.018a1.282 1.282 0 01.457-1.32zm21.505 30.001a1.307 1.307 0 00-1.822-.24 1.28 1.28 0 00-.241 1.806l.188.243a1.304 1.304 0 001.823.238 1.28 1.28 0 00.24-1.805l-.188-.242zM3.629 23.517l1.018-1.008 1.017 1.008a1.3 1.3 0 00.919.377c.333 0 .666-.125.92-.377a1.281 1.281 0 000-1.822l-1.018-1.007 1.018-1.009a1.28 1.28 0 000-1.821 1.31 1.31 0 00-1.839 0l-1.017 1.009-1.018-1.009a1.31 1.31 0 00-1.839 0 1.28 1.28 0 000 1.821l1.018 1.009-1.017 1.007a1.28 1.28 0 000 1.822 1.31 1.31 0 001.838 0zm54.445 36.934l-.188-.244a1.307 1.307 0 00-1.822-.237 1.279 1.279 0 00-.241 1.805l.188.243a1.3 1.3 0 001.032.504c.276 0 .554-.087.79-.266.57-.433.678-1.241.241-1.805zm10.4-14.897l1.018-1.008a1.277 1.277 0 000-1.82 1.308 1.308 0 00-1.838 0l-1.018 1.008-1.018-1.009a1.309 1.309 0 00-1.838 0 1.278 1.278 0 000 1.821l1.018 1.008-1.018 1.008a1.278 1.278 0 000 1.821 1.308 1.308 0 001.838 0l1.018-1.008 1.018 1.008a1.3 1.3 0 00.919.378 1.3 1.3 0 00.919-.378 1.278 1.278 0 000-1.821l-1.018-1.008zm-7.619 5.187l-12.112-9.222a1.308 1.308 0 00-1.823.236 1.28 1.28 0 00.238 1.805l12.113 9.222a1.302 1.302 0 001.823-.236 1.279 1.279 0 00-.239-1.805zm-12.085-2.32a1.308 1.308 0 00-1.822-.239 1.281 1.281 0 00-.242 1.806l6.463 8.355a1.3 1.3 0 001.033.505c.275 0 .553-.087.789-.266.57-.433.678-1.24.242-1.804l-6.463-8.357zm-25.843-6.73a1.308 1.308 0 00-1.822-.239L8.917 50.703a1.279 1.279 0 00-.241 1.805 1.3 1.3 0 001.032.504c.276 0 .554-.087.79-.266l12.188-9.25c.57-.432.678-1.241.241-1.805zM9.715 58.748a1.31 1.31 0 00-1.839 0l-1.018 1.008-1.017-1.008a1.31 1.31 0 00-1.839 0 1.278 1.278 0 000 1.821l1.018 1.007-1.018 1.009a1.28 1.28 0 000 1.822 1.31 1.31 0 001.838 0l1.018-1.009 1.018 1.009a1.307 1.307 0 001.838 0 1.28 1.28 0 000-1.822l-1.017-1.009 1.017-1.007a1.28 1.28 0 00.001-1.821zm12.716-24.527a1.3 1.3 0 00-1.457-1.11L3.263 35.408a1.29 1.29 0 00-1.12 1.443 1.296 1.296 0 001.458 1.11l17.71-2.297a1.289 1.289 0 001.12-1.443zm15.932 15.1a1.3 1.3 0 00-1.463-1.102 1.288 1.288 0 00-1.113 1.448l1.991 14.541a1.296 1.296 0 001.462 1.103 1.29 1.29 0 001.114-1.448l-1.991-14.542zm-5.341-.969a1.3 1.3 0 00-1.47 1.095l-2.058 14.416a1.29 1.29 0 001.289 1.468c.637 0 1.193-.465 1.285-1.107l2.058-14.416a1.29 1.29 0 00-1.104-1.456zm-10.194-.188a1.308 1.308 0 00-1.822.236l-6.475 8.348a1.279 1.279 0 00.238 1.805 1.302 1.302 0 001.823-.236l6.475-8.346a1.281 1.281 0 00-.239-1.807z"/></svg>