<svg xmlns="http://www.w3.org/2000/svg" xmlns:xlink="http://www.w3.org/1999/xlink" width="61" height="61"><path fill-rule="evenodd" fill="#F64D01" d="M42.541 28.346c.222.221.35.529.35.842a1.197 1.197 0 01-1.192 1.192 1.197 1.197 0 01-1.191-1.192 1.193 1.193 0 011.191-1.192c.313 0 .621.128.842.35zm-.842 32.652c-10.643 0-19.301-8.658-19.301-19.301a1.19 1.19 0 112.383 0c0 8.929 6.952 16.262 15.726 16.876V33.954a1.192 1.192 0 112.383 0v24.619c8.775-.613 15.727-7.947 15.727-16.876 0-9.328-7.589-16.918-16.918-16.918-1.365 0-2.72.164-4.033.485a19.219 19.219 0 01-4.717 7.684A19.174 19.174 0 0119.301 38.6a19.174 19.174 0 01-13.648-5.652A19.18 19.18 0 010 19.299 19.175 19.175 0 015.653 5.652 19.172 19.172 0 0119.301-.002a19.171 19.171 0 0113.648 5.654 19.172 19.172 0 015.652 13.647c0 1.151-.1 2.287-.296 3.398a19.337 19.337 0 013.394-.301C52.341 22.396 61 31.055 61 41.697c0 10.643-8.658 19.301-19.301 19.301zM31.264 7.337a16.807 16.807 0 00-11.963-4.956c-4.12 0-8.014 1.464-11.091 4.142l20.281 20.281a1.192 1.192 0 01-1.685 1.685L6.525 8.209a16.792 16.792 0 00-4.142 11.09c0 4.519 1.759 8.768 4.955 11.964a16.81 16.81 0 0011.963 4.954c4.519 0 8.768-1.76 11.963-4.954a16.81 16.81 0 004.955-11.964c0-4.519-1.76-8.767-4.955-11.962zm-2.374 3.565c-.305 0-.61-.117-.843-.349a12.42 12.42 0 00-9.272-3.612 1.192 1.192 0 01-.101-2.38 14.786 14.786 0 0111.058 4.307 1.192 1.192 0 01-.842 2.034zM15.223 7.619a1.195 1.195 0 01-1.513-.722 1.19 1.19 0 01.717-1.524c.011-.004.031-.01.042-.015a1.193 1.193 0 01.754 2.261z"/></svg>