<svg xmlns="http://www.w3.org/2000/svg" xmlns:xlink="http://www.w3.org/1999/xlink" width="60" height="60"><path fill-rule="evenodd" fill="#FA4F01" d="M54.88 15.225c.218.217.343.519.343.828 0 .308-.125.61-.343.828a1.176 1.176 0 01-1.657 0 1.18 1.18 0 01-.344-.828 1.177 1.177 0 011.172-1.172c.309 0 .611.126.829.344zm-6.492 20.398a4.458 4.458 0 014.453 4.454 4.458 4.458 0 01-4.453 4.452 4.457 4.457 0 01-4.453-4.452 4.457 4.457 0 014.453-4.454zm0 6.563a2.111 2.111 0 002.109-2.109c0-1.164-.946-2.11-2.109-2.11a2.111 2.111 0 00-2.109 2.11c0 1.163.946 2.109 2.109 2.109zm0-18.751a4.46 4.46 0 014.453 4.454 4.459 4.459 0 01-4.453 4.454 4.458 4.458 0 01-4.453-4.454 4.459 4.459 0 014.453-4.454zm0 6.563a2.111 2.111 0 002.109-2.109 2.11 2.11 0 00-2.109-2.109 2.11 2.11 0 00-2.109 2.109c0 1.163.946 2.109 2.109 2.109zM37.45 23.435a4.46 4.46 0 014.454 4.454 4.459 4.459 0 01-4.454 4.454 4.459 4.459 0 01-4.453-4.454 4.46 4.46 0 014.453-4.454zm0 6.563c1.163 0 2.11-.946 2.11-2.109a2.11 2.11 0 00-4.219 0c0 1.163.946 2.109 2.109 2.109zm-2.452 21.687c.218.218.343.519.343.827 0 .308-.125.61-.343.83a1.175 1.175 0 01-2.001-.83 1.178 1.178 0 011.172-1.171c.309 0 .611.125.829.344zm2.452-16.062a4.458 4.458 0 014.454 4.454 4.458 4.458 0 01-4.454 4.452 4.458 4.458 0 01-4.453-4.452 4.458 4.458 0 014.453-4.454zm0 6.563c1.163 0 2.11-.946 2.11-2.109 0-1.164-.947-2.11-2.11-2.11a2.111 2.111 0 00-2.109 2.11c0 1.163.946 2.109 2.109 2.109zm-10.937-6.563a4.458 4.458 0 014.453 4.454 4.458 4.458 0 01-4.453 4.452 4.457 4.457 0 01-4.453-4.452 4.457 4.457 0 014.453-4.454zm0 6.563a2.111 2.111 0 002.109-2.109c0-1.164-.946-2.11-2.109-2.11a2.111 2.111 0 00-2.109 2.11c0 1.163.946 2.109 2.109 2.109zm0-18.751a4.46 4.46 0 014.453 4.454 4.459 4.459 0 01-4.453 4.454 4.458 4.458 0 01-4.453-4.454 4.459 4.459 0 014.453-4.454zm0 6.563a2.111 2.111 0 002.109-2.109 2.11 2.11 0 00-2.109-2.109 2.11 2.11 0 00-2.109 2.109c0 1.163.946 2.109 2.109 2.109zm-6.484-2.109a4.459 4.459 0 01-4.454 4.454 4.459 4.459 0 01-4.453-4.454 4.46 4.46 0 014.453-4.454 4.46 4.46 0 014.454 4.454zm-6.563 0c0 1.163.946 2.109 2.109 2.109 1.164 0 2.11-.946 2.11-2.109a2.11 2.11 0 00-4.219 0zm42.08 32.109H4.453A4.458 4.458 0 010 55.545v-3.032c0-.647.525-1.173 1.172-1.173h3.17a9.583 9.583 0 01-3.349-7.279c0-5.299 4.311-9.609 9.61-9.609 5.298 0 9.609 4.31 9.609 9.609 0 2.908-1.3 5.517-3.348 7.279h11.709a1.173 1.173 0 010 2.345H2.344v1.86c0 1.163.946 2.11 2.109 2.11h47.172a4.423 4.423 0 01-.533-2.111v-1.859H38.633a1.172 1.172 0 010-2.345h13.631c.647 0 1.172.526 1.172 1.173v3.031c0 1.164.946 2.111 2.11 2.111s2.11-.947 2.11-2.111v-44.53a3.519 3.519 0 00-3.516-3.515h-5.585v1.465a3.52 3.52 0 01-3.516 3.515 3.52 3.52 0 01-3.516-3.515V7.499H21.836v1.465a3.52 3.52 0 01-3.516 3.515 3.52 3.52 0 01-3.515-3.515V7.455c-.1.027-.204.044-.313.044H9.823a3.519 3.519 0 00-3.516 3.515v3.867h42.248a1.172 1.172 0 010 2.343H6.307v13.752a1.172 1.172 0 01-2.344 0V11.014a5.866 5.866 0 015.86-5.859h4.669c.109 0 .213.015.313.043V3.514A3.52 3.52 0 0118.32-.002a3.52 3.52 0 013.516 3.516v1.641h19.687V3.514a3.52 3.52 0 013.516-3.516 3.52 3.52 0 013.516 3.516v1.641h5.585A5.866 5.866 0 0160 11.014v44.53a4.458 4.458 0 01-4.454 4.454zm-44.943-8.672c4.006 0 7.265-3.259 7.265-7.265 0-4.007-3.259-7.265-7.265-7.265s-7.266 3.258-7.266 7.265c0 4.006 3.26 7.265 7.266 7.265zm8.889-47.812c0-.646-.526-1.172-1.172-1.172-.646 0-1.172.526-1.172 1.172v5.45c0 .645.526 1.172 1.172 1.172.646 0 1.172-.527 1.172-1.172v-5.45zm26.719 0c0-.646-.526-1.172-1.172-1.172-.646 0-1.172.526-1.172 1.172v5.45c0 .645.526 1.172 1.172 1.172.646 0 1.172-.527 1.172-1.172v-5.45zM8 43.717l1.304 1.304 3.816-3.816a1.172 1.172 0 011.658 1.656l-4.645 4.647a1.176 1.176 0 01-1.658 0l-2.133-2.133A1.172 1.172 0 118 43.717z"/></svg>