<svg 
 xmlns="http://www.w3.org/2000/svg"
 xmlns:xlink="http://www.w3.org/1999/xlink"
 width="21px" height="24px">
<path fill-rule="evenodd"  fill="rgb(232, 120, 69)"
 d="M17.981,15.130 C17.553,14.566 16.994,14.219 16.366,14.142 C15.743,14.069 15.112,14.258 14.538,14.708 L12.741,16.096 C12.618,16.007 12.495,15.924 12.376,15.846 C12.205,15.732 12.043,15.627 11.908,15.516 C10.526,14.391 9.315,12.992 8.206,11.241 C7.671,10.374 7.328,9.650 7.103,8.935 C7.565,8.609 7.999,8.265 8.420,7.932 C8.579,7.812 8.739,7.681 8.898,7.558 C10.093,6.632 10.262,5.264 9.329,4.084 L8.116,2.543 C7.978,2.369 7.836,2.189 7.704,2.009 C7.438,1.658 7.159,1.299 6.867,0.957 C6.436,0.414 5.880,0.086 5.262,0.011 C4.644,-0.064 4.015,0.121 3.448,0.539 C3.443,0.544 3.443,0.544 3.437,0.548 L1.502,2.064 C0.774,2.627 0.307,3.365 0.113,4.264 C-0.190,5.717 0.077,7.135 0.300,8.074 C0.849,10.369 1.823,12.550 3.381,14.954 C5.274,17.852 7.687,20.250 10.555,22.087 C11.652,22.775 13.127,23.614 14.851,23.934 C14.956,23.949 15.067,23.970 15.168,23.981 C16.338,24.125 17.373,23.830 18.245,23.093 C18.251,23.085 18.262,23.080 18.269,23.068 C18.571,22.787 18.910,22.536 19.267,22.269 C19.511,22.090 19.760,21.902 20.006,21.701 C20.571,21.243 20.910,20.676 20.986,20.055 C21.063,19.432 20.869,18.802 20.420,18.236 L17.981,15.130 ZM19.140,20.642 C19.135,20.642 19.134,20.645 19.140,20.642 C18.916,20.827 18.690,20.996 18.446,21.181 C18.078,21.451 17.703,21.735 17.344,22.064 C16.765,22.548 16.131,22.727 15.341,22.633 C15.265,22.622 15.184,22.613 15.108,22.599 C13.616,22.318 12.290,21.568 11.303,20.941 C8.607,19.217 6.332,16.954 4.546,14.225 C3.075,11.949 2.156,9.901 1.645,7.757 C1.329,6.445 1.277,5.454 1.467,4.542 C1.591,3.959 1.879,3.499 2.351,3.133 L4.290,1.632 C4.567,1.431 4.846,1.339 5.104,1.368 C5.423,1.408 5.658,1.631 5.800,1.812 C5.804,1.819 5.809,1.822 5.813,1.831 C6.087,2.151 6.344,2.484 6.614,2.840 C6.751,3.020 6.893,3.199 7.035,3.387 L8.248,4.923 C8.718,5.520 8.658,6.015 8.055,6.478 C7.890,6.610 7.730,6.739 7.566,6.861 C7.087,7.239 6.632,7.594 6.143,7.932 C6.131,7.940 6.121,7.942 6.114,7.952 C5.625,8.331 5.654,8.765 5.710,9.062 C5.713,9.080 5.716,9.094 5.719,9.108 C5.972,10.017 6.378,10.891 7.028,11.954 L7.032,11.957 C8.218,13.842 9.528,15.353 11.027,16.569 C11.219,16.724 11.418,16.859 11.608,16.982 C11.780,17.094 11.941,17.201 12.077,17.309 C12.096,17.321 12.114,17.341 12.133,17.350 C12.295,17.459 12.452,17.516 12.619,17.539 C13.040,17.592 13.335,17.360 13.432,17.285 L15.377,15.777 C15.570,15.627 15.869,15.456 16.188,15.490 C16.502,15.532 16.736,15.758 16.872,15.950 C16.877,15.954 16.877,15.954 16.881,15.957 L19.329,19.068 C19.788,19.645 19.722,20.173 19.140,20.642 Z"/>
</svg>