<?xml version="1.0" encoding="utf-8"?><svg xmlns="http://www.w3.org/2000/svg" width="26" height="41" viewBox="0 0 26 41"><path fill-rule="evenodd" fill="#A3ACB5" d="M24.086 29.445a.606.606 0 01-.611-.6c0-.334.274-.6.611-.6a.69.69 0 00.694-.684v-3.793c0-.995-.562-1.889-1.465-2.334L18.373 19a2.506 2.506 0 01-1.419-2.257v-1.314a6.097 6.097 0 01-.388.238.613.613 0 01-.833-.219.595.595 0 01.222-.82c1.823-1.04 2.956-2.971 2.956-5.041v-3.85c0-2.501-2.652-4.536-5.911-4.536-3.259 0-5.911 2.035-5.911 4.536v3.85c0 2.07 1.132 4.001 2.954 5.039a.596.596 0 01.222.821.613.613 0 01-.834.218 6.127 6.127 0 01-.386-.236v1.314c0 .961-.543 1.828-1.418 2.257l-4.942 2.434a2.592 2.592 0 00-1.465 2.334v3.793a.69.69 0 00.694.684c.337 0 .61.266.61.6 0 .331-.273.6-.61.6C.859 29.445 0 28.599 0 27.561v-3.793c0-1.453.82-2.759 2.14-3.408l4.941-2.433c.459-.226.744-.68.744-1.184v-2.329a6.984 6.984 0 01-1.956-4.827v-3.85C5.869 2.572 9.068 0 13 0c3.932 0 7.131 2.572 7.131 5.737v3.85c0 1.815-.72 3.538-1.956 4.827v2.329c0 .504.285.958.744 1.184l4.941 2.433A3.783 3.783 0 0126 23.768v3.793c0 1.038-.859 1.884-1.914 1.884zm-14.004.969l2.248 2.212 3.779-3.72a.62.62 0 01.863 0 .595.595 0 010 .85l-4.21 4.145a.621.621 0 01-.432.177.619.619 0 01-.431-.177L9.22 31.264a.593.593 0 010-.85.615.615 0 01.862 0zm-5.898-4.932h.013c.331 0 .602.26.61.585 0 .023.065 2.229 1.15 5.026A17.797 17.797 0 0013 39.688a17.797 17.797 0 007.043-8.595c.804-2.071 1.048-3.819 1.12-4.594L13 23.703l-6.13 2.099a.613.613 0 01-.777-.37.6.6 0 01.376-.764l6.331-2.166a.6.6 0 01.401 0l8.803 3.013a.6.6 0 01.409.579c-.002.098-.064 2.398-1.212 5.381a18.993 18.993 0 01-7.879 9.433.6.6 0 01-.322.091.6.6 0 01-.322-.091 18.995 18.995 0 01-7.879-9.432c-1.148-2.984-1.21-5.284-1.212-5.382a.604.604 0 01.597-.612z"/></svg>