<?xml version="1.0" encoding="utf-8"?><svg xmlns="http://www.w3.org/2000/svg" width="48" height="75" viewBox="0 0 48 75"><path fill-rule="evenodd" fill="#FF6B00" d="M29.508 30.556l-1.125 3.056c-.1.273-.307.496-.573.619a1.127 1.127 0 01-.848.036l-1.489-.536-.542 1.473a1.11 1.11 0 01-1.421.655l-3.089-1.111a1.107 1.107 0 01-.625-.567 1.082 1.082 0 01-.037-.839l.542-1.473-1.49-.536a1.107 1.107 0 01-.625-.567 1.084 1.084 0 01-.037-.838l1.124-3.057c.21-.569.846-.862 1.421-.655l1.489.536.542-1.473a1.113 1.113 0 011.421-.655l3.09 1.112c.575.208.871.837.662 1.405l-.542 1.474 1.489.536c.575.207.872.835.663 1.405zm-3.952-.256a1.092 1.092 0 01-.662-1.405l.542-1.473-1.007-.363-.542 1.474c-.1.273-.306.495-.573.619a1.13 1.13 0 01-.847.036l-1.49-.537-.366.996 1.49.537c.575.206.872.836.662 1.405l-.542 1.473 1.006.362.542-1.473a1.11 1.11 0 011.421-.655l1.489.536.366-.995-1.489-.537zm6.248-2.678a1.11 1.11 0 011.297.872 9.227 9.227 0 01-.404 4.94c-1.393 3.788-5.022 6.145-8.878 6.145a9.472 9.472 0 01-3.219-.564c-4.89-1.761-7.421-7.129-5.641-11.967a9.313 9.313 0 014.881-5.269 9.47 9.47 0 017.217-.311 9.487 9.487 0 013.719 2.451 1.09 1.09 0 01-.067 1.55 1.116 1.116 0 01-1.566-.068 7.14 7.14 0 00-2.845-1.872 7.247 7.247 0 00-5.522.238 7.127 7.127 0 00-3.734 4.031 7.028 7.028 0 00.242 5.463 7.146 7.146 0 004.074 3.693c3.741 1.347 7.894-.568 9.256-4.269a7.063 7.063 0 00.309-3.78 1.098 1.098 0 01.881-1.283zm15.987-15.841l-2.187 5.944a.008.008 0 00-.002.005l-.015.033a.756.756 0 01-.033.078L30.065 48.434c-1.048 2.07-3.166 3.295-5.391 3.295a6.078 6.078 0 01-2.061-.361l-.692-.25-2.466 6.702a1.11 1.11 0 01-1.421.654l-8.112-2.92a1.09 1.09 0 01-.663-1.406l2.466-6.701-.692-.249c-2.877-1.037-4.512-4.039-3.802-6.986l5.306-22.042c.142-.59.74-.954 1.336-.813.595.141.963.732.821 1.321L9.387 40.721c-.448 1.863.585 3.761 2.404 4.416l1.733.624.001.001 8.112 2.921h.001l1.733.624c1.819.654 3.844-.143 4.711-1.855L43.014 17.96l-5.586-2.012-20.315-7.314-1.37 5.689c-.142.59-.74.954-1.336.813a1.095 1.095 0 01-.821-1.32l1.658-6.888.003-.008c.006-.025.014-.049.022-.075l.01-.033.002-.005L17.468.862a1.112 1.112 0 011.421-.655l4.705 1.694h.001l.002.001 23.531 8.472c.575.207.872.837.663 1.407zM13.808 48.197l-2.087 5.671 6.03 2.171 2.086-5.671-6.029-2.171zm28.897-37.081l-.714 1.941a1.11 1.11 0 01-1.421.655 1.092 1.092 0 01-.663-1.404l.715-1.942-2.624-.945-.714 1.942a1.11 1.11 0 01-1.421.656 1.094 1.094 0 01-.662-1.407l.714-1.942-2.623-.943-.715 1.941a1.108 1.108 0 01-1.42.656 1.093 1.093 0 01-.663-1.405l.715-1.942-2.624-.944-.714 1.941a1.11 1.11 0 01-1.421.655 1.094 1.094 0 01-.662-1.406l.714-1.941-2.623-.944-.715 1.941a1.108 1.108 0 01-1.42.655 1.093 1.093 0 01-.663-1.405l.715-1.942-2.624-.945-1.429 3.884 13.079 4.709L43.9 15.943l1.429-3.883-2.624-.944zM7.944 57.897a4.26 4.26 0 00-.563 2.113c0 2.374 1.953 4.306 4.353 4.306h16.22c4.561 0 8.272 3.671 8.272 8.182v1.405c0 .606-.497 1.096-1.109 1.096H16.171c-.612 0-1.109-.49-1.109-1.096 0-.606.497-1.096 1.109-1.096h17.837v-.309c0-3.302-2.715-5.988-6.054-5.988h-16.22c-3.623 0-6.57-2.917-6.57-6.5 0-.167.006-.333.019-.497a7.356 7.356 0 00-2.966 5.899c0 4.078 3.353 7.395 7.475 7.395h1.963c.612 0 1.108.49 1.108 1.096 0 .606-.496 1.096-1.108 1.096H9.692c-5.344 0-9.692-4.3-9.692-9.587 0-4.134 2.664-7.789 6.628-9.095a1.115 1.115 0 011.206.343c.292.35.335.842.11 1.237z"/></svg>