<?xml version="1.0" encoding="utf-8"?><svg xmlns="http://www.w3.org/2000/svg" width="27" height="15" viewBox="0 0 27 15"><path fill-rule="evenodd" fill="#FD7532" d="M26.337 13.239h-1.48C24.63 14.248 23.747 15 22.686 15c-1.061 0-1.944-.758-2.171-1.761h-7.943C12.346 14.248 11.462 15 10.401 15c-1.06 0-1.95-.752-2.171-1.761H6.214a.67.67 0 01-.663-.673v-2.345H2.972a.67.67 0 01-.663-.673c0-.371.298-.675.663-.675H6.22c.364 0 .663.304.663.675v2.35h1.309c.049 0 .094.006.143.016a2.226 2.226 0 012.066-1.43c.934 0 1.735.589 2.066 1.42.028-.006.055-.006.083-.006h6.242V1.346H6.883v2.345a.67.67 0 01-.663.673H2.972a.67.67 0 01-.663-.673.67.67 0 01.663-.673h2.579V.673c0-.37.299-.674.663-.674h13.235a.67.67 0 01.663.674v1.526h2.778c1.155 0 2.193.443 2.922 1.246C26.586 4.296 27 5.52 27 6.973v5.593a.67.67 0 01-.663.673zM10.401 11.83c-.497 0-.9.411-.9.915 0 .505.403.914.9.914a.908.908 0 00.901-.914.91.91 0 00-.901-.915zm12.285 1.829a.913.913 0 00.9-.914.908.908 0 00-.9-.915c-.497 0-.9.411-.9.915 0 .505.403.914.9.914zm2.988-6.681c0-2.149-1.038-3.433-2.778-3.433h-2.779v8.353h.509a2.227 2.227 0 012.06-1.414c.928 0 1.729.589 2.06 1.414h.928v-4.92zM11.467 5.419a.683.683 0 010-.954.656.656 0 01.939 0l1.624 1.65.006.005c.011.017.028.028.039.044.005.012.011.018.016.029.011.011.017.016.022.028l.017.034c.005.011.011.016.016.028l.017.033c0 .011.005.018.011.028.006.012.006.023.011.034.005.006.005.017.011.028 0 .011.005.023.005.034 0 .01.006.022.006.034 0 .016.006.027.006.038a.501.501 0 01.005.163c0 .012-.005.017-.005.029 0 .016-.006.027-.006.039 0 .011-.006.023-.006.033 0 .012 0 .023-.005.034-.006.006-.006.017-.011.028-.005.011-.005.023-.011.034 0 .01-.006.016-.011.028l-.017.033c-.005.012-.011.017-.016.029l-.017.033c-.011.012-.016.017-.022.028-.005.011-.011.017-.016.028-.011.017-.028.028-.039.045l-.006.006-1.707 1.733a.673.673 0 01-.469.197.668.668 0 01-.47-.197.683.683 0 010-.954l.569-.616H.663A.67.67 0 010 6.591a.67.67 0 01.663-.673h11.296l-.492-.499z"/></svg>