<?xml version="1.0" encoding="utf-8"?><svg xmlns="http://www.w3.org/2000/svg" width="19" height="20" viewBox="0 0 19 20"><path fill-rule="evenodd" fill="#FF6B00" d="M9.753 19.963A.944.944 0 019.5 20a.938.938 0 01-.253-.037C0 17.068.145 10.207.251 5.199c.012-.536.022-1.049.022-1.538 0-.385.346-.695.773-.695 3.304 0 5.819-.859 7.915-2.702a.834.834 0 011.077 0c2.097 1.843 4.613 2.702 7.917 2.702.427 0 .772.31.772.695 0 .489.011 1 .023 1.538.105 5.007.25 11.869-8.997 14.764zm7.452-14.737a97.564 97.564 0 01-.017-.881c-3.095-.118-5.57-.965-7.688-2.63-2.118 1.665-4.593 2.512-7.687 2.63-.004.285-.011.578-.017.881C1.69 10.261 1.57 15.959 9.5 18.562c7.931-2.603 7.811-8.301 7.705-13.336zm-8.227 7.231a.81.81 0 01-.546.202.81.81 0 01-.547-.202l-2.137-1.929a.65.65 0 010-.987.828.828 0 011.092 0l1.592 1.436 3.728-3.37a.839.839 0 011.093 0 .653.653 0 010 .988l-4.275 3.862z"/></svg>