<?xml version="1.0" encoding="utf-8"?><svg xmlns="http://www.w3.org/2000/svg" width="21" height="24" viewBox="0 0 21 24"><path fill-rule="evenodd" fill="#E87845" d="M17.981 15.13c-.428-.564-.987-.911-1.615-.988-.623-.073-1.254.116-1.828.566l-1.797 1.388a9.572 9.572 0 00-.365-.25c-.171-.114-.333-.219-.468-.33-1.382-1.125-2.593-2.524-3.702-4.275-.535-.867-.878-1.591-1.103-2.306.462-.326.896-.67 1.317-1.003.159-.12.319-.251.478-.374 1.195-.926 1.364-2.294.431-3.474L8.116 2.543a18.02 18.02 0 01-.412-.534A23.22 23.22 0 006.867.957C6.436.414 5.88.086 5.262.011c-.618-.075-1.247.11-1.814.528l-.011.009-1.935 1.516a3.695 3.695 0 00-1.389 2.2C-.19 5.717.077 7.135.3 8.074c.549 2.295 1.523 4.476 3.081 6.88a23.963 23.963 0 007.174 7.133c1.097.688 2.572 1.527 4.296 1.847.105.015.216.036.317.047 1.17.144 2.205-.151 3.077-.888.006-.008.017-.013.024-.025.302-.281.641-.532.998-.799.244-.179.493-.367.739-.568.565-.458.904-1.025.98-1.646.077-.623-.117-1.253-.566-1.819l-2.439-3.106zm1.159 5.512c-.005 0-.006.003 0 0-.224.185-.45.354-.694.539-.368.27-.743.554-1.102.883-.579.484-1.213.663-2.003.569-.076-.011-.157-.02-.233-.034-1.492-.281-2.818-1.031-3.805-1.658-2.696-1.724-4.971-3.987-6.757-6.716-1.471-2.276-2.39-4.324-2.901-6.468-.316-1.312-.368-2.303-.178-3.215a2.326 2.326 0 01.884-1.409L4.29 1.632c.277-.201.556-.293.814-.264.319.04.554.263.696.444.004.007.009.01.013.019.274.32.531.653.801 1.009.137.18.279.359.421.547l1.213 1.536c.47.597.41 1.092-.193 1.555-.165.132-.325.261-.489.383a27.85 27.85 0 01-1.423 1.071c-.012.008-.022.01-.029.02-.489.379-.46.813-.404 1.11l.009.046c.253.909.659 1.783 1.309 2.846l.004.003c1.186 1.885 2.496 3.396 3.995 4.612.192.155.391.29.581.413.172.112.333.219.469.327.019.012.037.032.056.041.162.109.319.166.486.189.421.053.716-.179.813-.254l1.945-1.508c.193-.15.492-.321.811-.287.314.042.548.268.684.46l.009.007 2.448 3.111c.459.577.393 1.105-.189 1.574z"/></svg>