<?xml version="1.0" encoding="utf-8"?><svg xmlns="http://www.w3.org/2000/svg" width="62" height="61" viewBox="0 0 62 61"><path fill-rule="evenodd" fill="#FA590E" d="M52.927 43.648v-9.924a1.19 1.19 0 112.382 0v9.924a1.19 1.19 0 01-2.382 0zm1.19 5.715a1.194 1.194 0 01-1.19-1.189 1.196 1.196 0 011.19-1.193 1.195 1.195 0 011.191 1.193 1.193 1.193 0 01-1.191 1.189zM20.666 30.748c.222.221.349.529.349.841 0 .314-.128.622-.349.842-.221.222-.529.35-.842.35a1.2 1.2 0 01-.842-.35 1.198 1.198 0 01-.349-.842c0-.312.128-.62.349-.841.222-.221.529-.349.842-.349.313 0 .621.128.842.349zm34.406 30.248H24.587a5.96 5.96 0 01-5.954-5.954V36.843a1.192 1.192 0 012.382 0v18.199a3.578 3.578 0 003.572 3.574h30.485a3.578 3.578 0 003.573-3.574V22.566a24 24 0 01-4.405 1.165 25.434 25.434 0 01-4.199.345c-3.027 0-6.7-.527-10.669-2.23-8.957-3.84-16.282-1.239-18.357-.33v3.629a1.191 1.191 0 01-2.382 0V1.218c0-.658.534-1.192 1.191-1.192h40.012c.657 0 1.19.534 1.19 1.192v53.824a5.96 5.96 0 01-5.954 5.954zm3.573-58.587h-37.63v16.539a23.828 23.828 0 014.427-1.174c3.436-.576 8.806-.715 14.868 1.883 4.407 1.89 8.928 2.475 13.437 1.741 2.319-.378 4.038-1.026 4.898-1.401V2.409zM10.234 60.998c-4.071 0-7.383-3.312-7.383-7.383 0-4.072 3.312-7.384 7.383-7.384s7.383 3.312 7.383 7.384c0 4.071-3.312 7.383-7.383 7.383zm-1.191-12.24a5.01 5.01 0 00-3.81 4.857 5.01 5.01 0 003.81 4.857v-9.714zm2.382 0v9.714a5.01 5.01 0 003.811-4.857 5.008 5.008 0 00-3.811-4.857zM7.44 41.702a7.335 7.335 0 01-5.221-2.162c-2.879-2.879-2.879-7.563 0-10.442 2.879-2.878 7.563-2.878 10.441 0a7.332 7.332 0 012.163 5.221 7.333 7.333 0 01-2.163 5.221 7.334 7.334 0 01-5.22 2.162zm-3.537-3.846a4.973 4.973 0 003.537 1.465c.929 0 1.819-.253 2.594-.724l-6.871-6.87a5.01 5.01 0 00.74 6.129zm7.073-7.074a4.986 4.986 0 00-3.536-1.463c-.9 0-1.799.242-2.593.724l6.871 6.87a4.973 4.973 0 00.723-2.594c0-1.337-.52-2.592-1.465-3.537z"/></svg>