<?xml version="1.0" encoding="utf-8"?><svg viewBox="0 0 88 233" xmlns="http://www.w3.org/2000/svg" xmlns:xlink="http://www.w3.org/1999/xlink"><style>:root>svg{display:none}:root>svg:target{display:block}</style><svg viewBox="0 0 49 233" id="arrowdown" xmlns="http://www.w3.org/2000/svg"><path fill-rule="evenodd" fill="#FD7532" d="M12.062 221.449l5.76 4.559-17.289 6.367 1.765-18.656L10.233 220C20.52 206.957 46 168.905 46 112 46 40.796 6 0 6 0h3s40 40.652 40 112c0 59.088-27.584 97.963-36.938 109.449z"/></svg><svg viewBox="0 0 39 39" id="bullit1" xmlns="http://www.w3.org/2000/svg"><path fill-rule="evenodd" fill="#A3ACB5" d="M26.824 35.146a12.104 12.104 0 01-3.779-.614 8.91 8.91 0 01-7.751 4.455 8.962 8.962 0 01-3.574-.729C7.189 36.3 5.102 31.042 7.058 26.512a14.08 14.08 0 01-5.991-8.125C-1 10.889 3.405 3.133 10.905 1.066c7.5-2.066 15.255 2.34 17.321 9.838a12.16 12.16 0 0110.769 12.089c-.005 6.717-5.454 12.158-12.171 12.153zm-11.53 2.562a7.641 7.641 0 006.533-3.634c-.028-.012-.056-.029-.084-.042-.23-.106-.458-.222-.683-.342l-.202-.112a11.87 11.87 0 01-.757-.462 12.227 12.227 0 01-4.025-4.454c-.473.051-.948.078-1.422.08a13.518 13.518 0 01-6.477-1.595 7.662 7.662 0 007.117 10.561zm11.81-26.073a12.812 12.812 0 00-12.447-9.791C7.582 1.842 1.844 7.574 1.842 14.649c0 7.075 5.736 12.811 12.812 12.811a12.12 12.12 0 001.681-.113l.024-.004a12.428 12.428 0 003.529-1.001c.745-.33 1.454-.736 2.118-1.21a12.81 12.81 0 005.459-10.483 12.558 12.558 0 00-.361-3.014zm1.431.602a14.07 14.07 0 01-5.785 13.942h-.004a13.55 13.55 0 01-3.194 1.682c-.09.034-.179.063-.269.095-.207.071-.416.142-.627.202-.095.028-.191.057-.287.084-.235.062-.472.121-.709.172-.062.013-.12.03-.184.042l-.045.01.051.083c.182.307.379.603.591.89.02.027.039.057.06.084.221.291.456.571.705.837a11.32 11.32 0 00.923.892c.049.042.1.08.15.122a10.511 10.511 0 003.051 1.781c1.232.473 2.542.714 3.862.709a10.884 10.884 0 0010.718-9.146c.96-5.934-3.073-11.521-9.007-12.481zm5.335 10.098h2.563v1.282H33.87v-1.282zm-1.265-3.434l2.219-1.281.64 1.107-2.219 1.282-.64-1.108zM29.793 29.4l1.11-.64 1.281 2.22-1.11.64-1.281-2.22zm-.001-12.844l1.28-2.22 1.11.64-1.281 2.22-1.109-.64zm5.673 10.672l-.641 1.109-2.218-1.28.64-1.109 2.219 1.28zm-9.281 2.793h1.281v2.563h-1.281v-2.563zm-4.72.955l1.281-2.219 1.11.642-1.281 2.219-1.11-.642zm-.399-6.75a11.252 11.252 0 01-2.774 1.364h-.004a11.359 11.359 0 01-3.633.589c-.913.001-1.822-.11-2.708-.329h-.005a11.224 11.224 0 01-2.876-1.121l-.002.001a11.551 11.551 0 01-3.993-3.672C1.528 15.765 2.947 8.606 8.24 5.065c5.292-3.542 12.453-2.123 15.995 3.168 3.541 5.292 2.122 12.452-3.17 15.993zM14.647 4.394c-5.66.005-10.246 4.595-10.242 10.255a10.272 10.272 0 007.842 9.959h.008a10.26 10.26 0 005.63-.236h.004a9.951 9.951 0 002.461-1.21 10.245 10.245 0 004.552-8.527C24.899 8.977 20.307 4.39 14.647 4.394zm2.569 17.3h-5.125a.64.64 0 010-1.279h1.922V9.791l-1.789 1.789a.642.642 0 01-.906-.907l2.883-2.881a.641.641 0 011.093.454v12.169h1.922a.64.64 0 110 1.279zm-1.922 13.452a5.058 5.058 0 002.278-.535l.571 1.147a6.316 6.316 0 01-2.849.669 6.412 6.412 0 01-6.406-6.406h1.282a5.131 5.131 0 005.124 5.125z"/></svg><svg viewBox="0 0 26 41" id="bullit2" xmlns="http://www.w3.org/2000/svg"><path fill-rule="evenodd" fill="#A3ACB5" d="M24.086 29.445a.606.606 0 01-.611-.6c0-.334.274-.6.611-.6a.69.69 0 00.694-.684v-3.793c0-.995-.562-1.889-1.465-2.334L18.373 19a2.506 2.506 0 01-1.419-2.257v-1.314a6.097 6.097 0 01-.388.238.613.613 0 01-.833-.219.595.595 0 01.222-.82c1.823-1.04 2.956-2.971 2.956-5.041v-3.85c0-2.501-2.652-4.536-5.911-4.536-3.259 0-5.911 2.035-5.911 4.536v3.85c0 2.07 1.132 4.001 2.954 5.039a.596.596 0 01.222.821.613.613 0 01-.834.218 6.127 6.127 0 01-.386-.236v1.314c0 .961-.543 1.828-1.418 2.257l-4.942 2.434a2.592 2.592 0 00-1.465 2.334v3.793a.69.69 0 00.694.684c.337 0 .61.266.61.6 0 .331-.273.6-.61.6C.859 29.445 0 28.599 0 27.561v-3.793c0-1.453.82-2.759 2.14-3.408l4.941-2.433c.459-.226.744-.68.744-1.184v-2.329a6.984 6.984 0 01-1.956-4.827v-3.85C5.869 2.572 9.068 0 13 0c3.932 0 7.131 2.572 7.131 5.737v3.85c0 1.815-.72 3.538-1.956 4.827v2.329c0 .504.285.958.744 1.184l4.941 2.433A3.783 3.783 0 0126 23.768v3.793c0 1.038-.859 1.884-1.914 1.884zm-14.004.969l2.248 2.212 3.779-3.72a.62.62 0 01.863 0 .595.595 0 010 .85l-4.21 4.145a.621.621 0 01-.432.177.619.619 0 01-.431-.177L9.22 31.264a.593.593 0 010-.85.615.615 0 01.862 0zm-5.898-4.932h.013c.331 0 .602.26.61.585 0 .023.065 2.229 1.15 5.026A17.797 17.797 0 0013 39.688a17.797 17.797 0 007.043-8.595c.804-2.071 1.048-3.819 1.12-4.594L13 23.703l-6.13 2.099a.613.613 0 01-.777-.37.6.6 0 01.376-.764l6.331-2.166a.6.6 0 01.401 0l8.803 3.013a.6.6 0 01.409.579c-.002.098-.064 2.398-1.212 5.381a18.993 18.993 0 01-7.879 9.433.6.6 0 01-.322.091.6.6 0 01-.322-.091 18.995 18.995 0 01-7.879-9.432c-1.148-2.984-1.21-5.284-1.212-5.382a.604.604 0 01.597-.612z"/></svg><svg viewBox="0 0 40 35" id="bullit3" xmlns="http://www.w3.org/2000/svg"><path fill-rule="evenodd" fill="#A3ACB5" d="M39.812 32.288l-1.579-5.502a.82.82 0 00-.188-.3c-.977-2.977-3.383-5.276-6.429-6.066l-.451-.075a1.879 1.879 0 00-1.917.602c-1.654 1.885-3.759 2.035-5.977 2.035-2.218 0-4.324-.15-5.978-2.035a1.878 1.878 0 00-1.917-.602l-.451.112a9.336 9.336 0 00-5.489 4.031H4.699c-.037 0-.037 0-.075-.036 0-.038-.038-.077-.038-.152l.978-3.503c.864-2.751 2.519-3.581 5.752-4.408a.741.741 0 00.338-.189c.263.227.564.415.865.565.113.075.225.075.338.075.263 0 .526-.15.677-.413a.757.757 0 00-.339-1.018c-1.729-.904-2.97-3.465-2.97-6.105 0-2.334 1.918-4.256 4.249-4.256.451 0 .864.076 1.278.189a8.63 8.63 0 00-.639 3.278c0 6.442 3.872 11.866 8.458 11.866 4.512 0 8.497-5.536 8.497-11.866 0-4.71-3.797-8.515-8.497-8.515a8.45 8.45 0 00-7.105 3.88 6.01 6.01 0 00-1.992-.338c-2.03 0-3.835 1.092-4.85 2.713-.075-.077-.15-.114-.226-.152-.563-.3-1.127-.414-1.766-.414-2.106-.039-3.797 1.659-3.797 3.767 0 1.206.338 2.336.864 3.241-1.729.452-3.271 1.13-3.985 3.427L.113 18.31c-.113.377-.038.792.188 1.093.225.339.639.526 1.052.526h2.895c-.038.152-.113.302-.15.452l-.978 3.542a1.541 1.541 0 00.301 1.433c.301.413.752.64 1.278.64h3.985c-.113.262-.188.527-.263.79l-1.579 5.539c-.15.64-.038 1.318.376 1.845.414.528 1.015.829 1.654.829h28.91c.639 0 1.278-.301 1.654-.829a2.097 2.097 0 00.376-1.882zM17.368 5.349a.482.482 0 00.113-.15c.038-.038.038-.114.075-.151a6.862 6.862 0 016.015-3.541c3.121 0 5.752 2.071 6.654 4.899a3.539 3.539 0 01-3.533-1.395c-.264-.34-.715-.416-1.053-.152a.637.637 0 00-.263.378c-.038.037-.038.076-.075.112-1.053 2.148-4.587 3.053-8.609 2.26a7.866 7.866 0 01.676-2.26zm2.106 4.032c3.007 0 5.488-.943 6.767-2.713a5.016 5.016 0 003.345 1.282c.301 0 .639-.039.94-.113.038.226.038.413.038.64 0 5.538-3.271 10.396-6.993 10.396-3.571 0-6.691-4.481-6.955-9.756.978.187 1.955.264 2.858.264zm-17.82 9.041l.526-1.882c.452-1.546 1.391-1.998 3.271-2.45.113-.037.226-.075.301-.15.188.15.338.263.564.378.112.074.225.074.338.074.263 0 .526-.15.677-.414a.778.778 0 00-.301-1.018c-.977-.527-1.692-1.998-1.692-3.504a2.28 2.28 0 012.294-2.298c.413 0 .751.075 1.09.265.113.037.188.074.3.074a5.729 5.729 0 00-.3 1.807c0 2.149.714 4.259 1.842 5.728-2.256.566-4.248 1.318-5.564 3.39H1.654zm36.617 14.846c-.076.075-.226.225-.489.225H8.872c-.263 0-.413-.15-.489-.225-.112-.151-.15-.378-.112-.529L9.85 27.24a7.682 7.682 0 015.451-5.313l.451-.113c.113-.038.301.038.413.151 2.068 2.375 4.624 2.562 7.106 2.562 2.481 0 5.037-.187 7.105-2.562a.482.482 0 01.451-.151l.451.113a7.75 7.75 0 015.451 5.313l.677 2.335a.63.63 0 00.15.264l.827 2.863a.748.748 0 01-.112.566z"/></svg><svg viewBox="0 0 48 75" id="cream" xmlns="http://www.w3.org/2000/svg"><path fill-rule="evenodd" fill="#FF6B00" d="M29.508 30.556l-1.125 3.056c-.1.273-.307.496-.573.619a1.127 1.127 0 01-.848.036l-1.489-.536-.542 1.473a1.11 1.11 0 01-1.421.655l-3.089-1.111a1.107 1.107 0 01-.625-.567 1.082 1.082 0 01-.037-.839l.542-1.473-1.49-.536a1.107 1.107 0 01-.625-.567 1.084 1.084 0 01-.037-.838l1.124-3.057c.21-.569.846-.862 1.421-.655l1.489.536.542-1.473a1.113 1.113 0 011.421-.655l3.09 1.112c.575.208.871.837.662 1.405l-.542 1.474 1.489.536c.575.207.872.835.663 1.405zm-3.952-.256a1.092 1.092 0 01-.662-1.405l.542-1.473-1.007-.363-.542 1.474c-.1.273-.306.495-.573.619a1.13 1.13 0 01-.847.036l-1.49-.537-.366.996 1.49.537c.575.206.872.836.662 1.405l-.542 1.473 1.006.362.542-1.473a1.11 1.11 0 011.421-.655l1.489.536.366-.995-1.489-.537zm6.248-2.678a1.11 1.11 0 011.297.872 9.227 9.227 0 01-.404 4.94c-1.393 3.788-5.022 6.145-8.878 6.145a9.472 9.472 0 01-3.219-.564c-4.89-1.761-7.421-7.129-5.641-11.967a9.313 9.313 0 014.881-5.269 9.47 9.47 0 017.217-.311 9.487 9.487 0 013.719 2.451 1.09 1.09 0 01-.067 1.55 1.116 1.116 0 01-1.566-.068 7.14 7.14 0 00-2.845-1.872 7.247 7.247 0 00-5.522.238 7.127 7.127 0 00-3.734 4.031 7.028 7.028 0 00.242 5.463 7.146 7.146 0 004.074 3.693c3.741 1.347 7.894-.568 9.256-4.269a7.063 7.063 0 00.309-3.78 1.098 1.098 0 01.881-1.283zm15.987-15.841l-2.187 5.944a.008.008 0 00-.002.005l-.015.033a.756.756 0 01-.033.078L30.065 48.434c-1.048 2.07-3.166 3.295-5.391 3.295a6.078 6.078 0 01-2.061-.361l-.692-.25-2.466 6.702a1.11 1.11 0 01-1.421.654l-8.112-2.92a1.09 1.09 0 01-.663-1.406l2.466-6.701-.692-.249c-2.877-1.037-4.512-4.039-3.802-6.986l5.306-22.042c.142-.59.74-.954 1.336-.813.595.141.963.732.821 1.321L9.387 40.721c-.448 1.863.585 3.761 2.404 4.416l1.733.624.001.001 8.112 2.921h.001l1.733.624c1.819.654 3.844-.143 4.711-1.855L43.014 17.96l-5.586-2.012-20.315-7.314-1.37 5.689c-.142.59-.74.954-1.336.813a1.095 1.095 0 01-.821-1.32l1.658-6.888.003-.008c.006-.025.014-.049.022-.075l.01-.033.002-.005L17.468.862a1.112 1.112 0 011.421-.655l4.705 1.694h.001l.002.001 23.531 8.472c.575.207.872.837.663 1.407zM13.808 48.197l-2.087 5.671 6.03 2.171 2.086-5.671-6.029-2.171zm28.897-37.081l-.714 1.941a1.11 1.11 0 01-1.421.655 1.092 1.092 0 01-.663-1.404l.715-1.942-2.624-.945-.714 1.942a1.11 1.11 0 01-1.421.656 1.094 1.094 0 01-.662-1.407l.714-1.942-2.623-.943-.715 1.941a1.108 1.108 0 01-1.42.656 1.093 1.093 0 01-.663-1.405l.715-1.942-2.624-.944-.714 1.941a1.11 1.11 0 01-1.421.655 1.094 1.094 0 01-.662-1.406l.714-1.941-2.623-.944-.715 1.941a1.108 1.108 0 01-1.42.655 1.093 1.093 0 01-.663-1.405l.715-1.942-2.624-.945-1.429 3.884 13.079 4.709L43.9 15.943l1.429-3.883-2.624-.944zM7.944 57.897a4.26 4.26 0 00-.563 2.113c0 2.374 1.953 4.306 4.353 4.306h16.22c4.561 0 8.272 3.671 8.272 8.182v1.405c0 .606-.497 1.096-1.109 1.096H16.171c-.612 0-1.109-.49-1.109-1.096 0-.606.497-1.096 1.109-1.096h17.837v-.309c0-3.302-2.715-5.988-6.054-5.988h-16.22c-3.623 0-6.57-2.917-6.57-6.5 0-.167.006-.333.019-.497a7.356 7.356 0 00-2.966 5.899c0 4.078 3.353 7.395 7.475 7.395h1.963c.612 0 1.108.49 1.108 1.096 0 .606-.496 1.096-1.108 1.096H9.692c-5.344 0-9.692-4.3-9.692-9.587 0-4.134 2.664-7.789 6.628-9.095a1.115 1.115 0 011.206.343c.292.35.335.842.11 1.237z"/></svg><svg viewBox="0 0 88 25" id="cross" xmlns="http://www.w3.org/2000/svg"><path fill-rule="evenodd" fill="#EA7845" d="M87.122 23.035l-.173.983L44 13.014 1.052 24.018l-.174-.983L41.995 12.5.878 1.965l.174-.983L44 11.986 86.949.982l.173.983L46.005 12.5l41.117 10.535z"/></svg><svg viewBox="0 0 27 15" id="delivery" xmlns="http://www.w3.org/2000/svg"><path fill-rule="evenodd" fill="#FD7532" d="M26.337 13.239h-1.48C24.63 14.248 23.747 15 22.686 15c-1.061 0-1.944-.758-2.171-1.761h-7.943C12.346 14.248 11.462 15 10.401 15c-1.06 0-1.95-.752-2.171-1.761H6.214a.67.67 0 01-.663-.673v-2.345H2.972a.67.67 0 01-.663-.673c0-.371.298-.675.663-.675H6.22c.364 0 .663.304.663.675v2.35h1.309c.049 0 .094.006.143.016a2.226 2.226 0 012.066-1.43c.934 0 1.735.589 2.066 1.42.028-.006.055-.006.083-.006h6.242V1.346H6.883v2.345a.67.67 0 01-.663.673H2.972a.67.67 0 01-.663-.673.67.67 0 01.663-.673h2.579V.673c0-.37.299-.674.663-.674h13.235a.67.67 0 01.663.674v1.526h2.778c1.155 0 2.193.443 2.922 1.246C26.586 4.296 27 5.52 27 6.973v5.593a.67.67 0 01-.663.673zM10.401 11.83c-.497 0-.9.411-.9.915 0 .505.403.914.9.914a.908.908 0 00.901-.914.91.91 0 00-.901-.915zm12.285 1.829a.913.913 0 00.9-.914.908.908 0 00-.9-.915c-.497 0-.9.411-.9.915 0 .505.403.914.9.914zm2.988-6.681c0-2.149-1.038-3.433-2.778-3.433h-2.779v8.353h.509a2.227 2.227 0 012.06-1.414c.928 0 1.729.589 2.06 1.414h.928v-4.92zM11.467 5.419a.683.683 0 010-.954.656.656 0 01.939 0l1.624 1.65.006.005c.011.017.028.028.039.044.005.012.011.018.016.029.011.011.017.016.022.028l.017.034c.005.011.011.016.016.028l.017.033c0 .011.005.018.011.028.006.012.006.023.011.034.005.006.005.017.011.028 0 .011.005.023.005.034 0 .01.006.022.006.034 0 .016.006.027.006.038a.501.501 0 01.005.163c0 .012-.005.017-.005.029 0 .016-.006.027-.006.039 0 .011-.006.023-.006.033 0 .012 0 .023-.005.034-.006.006-.006.017-.011.028-.005.011-.005.023-.011.034 0 .01-.006.016-.011.028l-.017.033c-.005.012-.011.017-.016.029l-.017.033c-.011.012-.016.017-.022.028-.005.011-.011.017-.016.028-.011.017-.028.028-.039.045l-.006.006-1.707 1.733a.673.673 0 01-.469.197.668.668 0 01-.47-.197.683.683 0 010-.954l.569-.616H.663A.67.67 0 010 6.591a.67.67 0 01.663-.673h11.296l-.492-.499z"/></svg><svg version="1.1" id="exclamation" x="0" y="0" viewBox="0 0 8.5 36.7" xml:space="preserve" xmlns="http://www.w3.org/2000/svg"><style>.hst0{fill:#f4d3bb}</style><circle class="hst0" cx="4.3" cy="32.4" r="4.3"/><path class="hst0" d="M0 0h8.5v25.6H0z"/></svg><svg viewBox="0 0 12 51" id="exclamation-point" xmlns="http://www.w3.org/2000/svg"><text font-family="Myriad Pro" font-size="70" y="50"><tspan font-family="Roboto" font-weight="bold" fill="#F4D3BB">!</tspan></text></svg><svg viewBox="0 0 55 37" id="graph" xmlns="http://www.w3.org/2000/svg"><defs><linearGradient id="ja" x1="100%" x2="0%" y1="0%" y2="0%"><stop offset="0%" stop-color="#FF6B00"/><stop offset="100%" stop-color="#A6C93A"/></linearGradient></defs><path fill-rule="evenodd" fill="#A8CA3F" d="M53.854 36.999h-2.289l-.003.001h-6.875l-.002-.001h-6.87l-.003.001h-6.875l-.002-.001h-6.87l-.003.001h-6.875l-.002-.001H1.146A1.15 1.15 0 010 35.844c0-.639.513-1.157 1.146-1.157h1.146V21.969c0-.64.513-1.156 1.145-1.156h6.875a1.15 1.15 0 011.146 1.156v12.718h4.584V10.406c0-.638.513-1.156 1.145-1.156h6.875c.633 0 1.146.518 1.146 1.156v24.281h4.584V15.031c0-.638.513-1.156 1.145-1.156h6.875a1.15 1.15 0 011.146 1.156v19.656h4.584V1.156c0-.638.513-1.156 1.145-1.156h6.875c.633 0 1.146.518 1.146 1.156v33.531h1.146c.633 0 1.146.518 1.146 1.157a1.15 1.15 0 01-1.146 1.155zM9.167 23.125H4.583v11.562h4.584V23.125zm13.75-11.563h-4.584v23.125h4.584V11.562zm13.75 4.625h-4.584v18.5h4.584v-18.5zm13.75-13.875h-4.584v32.375h4.584V2.312z"/><path fill="url(#ja)" d="M53.854 36.999h-2.289l-.003.001h-6.875l-.002-.001h-6.87l-.003.001h-6.875l-.002-.001h-6.87l-.003.001h-6.875l-.002-.001H1.146A1.15 1.15 0 010 35.844c0-.639.513-1.157 1.146-1.157h1.146V21.969c0-.64.513-1.156 1.145-1.156h6.875a1.15 1.15 0 011.146 1.156v12.718h4.584V10.406c0-.638.513-1.156 1.145-1.156h6.875c.633 0 1.146.518 1.146 1.156v24.281h4.584V15.031c0-.638.513-1.156 1.145-1.156h6.875a1.15 1.15 0 011.146 1.156v19.656h4.584V1.156c0-.638.513-1.156 1.145-1.156h6.875c.633 0 1.146.518 1.146 1.156v33.531h1.146c.633 0 1.146.518 1.146 1.157a1.15 1.15 0 01-1.146 1.155zM9.167 23.125H4.583v11.562h4.584V23.125zm13.75-11.563h-4.584v23.125h4.584V11.562zm13.75 4.625h-4.584v18.5h4.584v-18.5zm13.75-13.875h-4.584v32.375h4.584V2.312z"/></svg><svg viewBox="0 0 19 23" id="name" xmlns="http://www.w3.org/2000/svg"><path fill-rule="evenodd" fill="#E87845" d="M18.769 20.423a.638.638 0 01-.24.301c-.139.09-3.462 2.277-9.022 2.277-5.56 0-8.883-2.183-9.022-2.277a.615.615 0 01-.24-.301c-.245-.639-.24-1.91-.236-2.155v-.015c.005-.038.005-.077.005-.121.028-.94.088-3.143 2.094-3.854.013-.003.027-.009.046-.013 2.093-.55 3.817-1.786 3.836-1.8a.608.608 0 01.869.159.65.65 0 01-.153.891c-.078.053-1.918 1.378-4.219 1.988-1.077.396-1.197 1.582-1.23 2.666 0 .046-.004.084-.004.12-.01.427.023 1.092.097 1.471.753.44 3.706 1.957 8.152 1.957 4.465 0 7.4-1.511 8.149-1.952.074-.379.101-1.042.097-1.47-.005-.039-.005-.078-.005-.119-.032-1.086-.152-2.27-1.229-2.67-2.302-.609-4.142-1.929-4.22-1.987a.652.652 0 01-.153-.893.612.612 0 01.869-.156c.019.014 1.752 1.249 3.836 1.799.014.006.033.009.047.014 2.006.706 2.065 2.909 2.093 3.853 0 .043.005.081.005.12v.016c.005.246.009 1.516-.222 2.151zm-9.202-8.028h-.148c-1.354-.028-2.449-.517-3.253-1.455-1.78-2.069-1.484-5.613-1.452-5.95.116-2.556 1.299-3.771 2.27-4.338C7.95.085 8.957-.002 9.47-.002h.079c.933.023 1.77.249 2.486.674.962.569 2.126 1.78 2.242 4.318.032.337.328 3.881-1.452 5.95-.808.938-1.904 1.427-3.258 1.455zm3.471-7.285c-.004-.01-.004-.026-.004-.039-.144-3.23-2.265-3.753-3.513-3.78H9.465c-1.007 0-3.36.368-3.512 3.78 0 .01-.005.024-.005.039-.004.026-.319 3.28 1.147 4.975.577.676 1.358 1.015 2.375 1.023h.046c1.022-.008 1.798-.347 2.381-1.023 1.469-1.702 1.146-4.943 1.141-4.975z"/></svg><svg viewBox="0 0 59 63" id="pills" xmlns="http://www.w3.org/2000/svg"><path fill-rule="evenodd" fill="#FF6B00" d="M53.721 52.76l-14.782 8.562c-4.62 2.677-10.515 1.139-13.249-3.458H6.096C2.735 57.864 0 55.119 0 51.746V28.055c0-1.314.433-2.616 1.219-3.67l6.096-8.156v-3.472a3.674 3.674 0 01-2.438-3.46V3.67A3.669 3.669 0 018.535-.001h21.946a3.669 3.669 0 013.657 3.671v5.627a3.674 3.674 0 01-2.438 3.46v3.472l6.096 8.155a6.182 6.182 0 011.219 3.671v10.623l4.953-2.869c4.669-2.705 10.628-1.102 13.323 3.582 2.709 4.71 1.058 10.687-3.57 13.369zM2.439 51.746a3.668 3.668 0 003.657 3.671h18.552a9.84 9.84 0 01-.058-4.906H2.439v1.235zM31.7 3.67c0-.675-.547-1.224-1.22-1.224H8.535c-.673 0-1.22.549-1.22 1.224h.001v5.627c0 .675.546 1.223 1.219 1.223H30.48c.673 0 1.22-.548 1.22-1.223V3.67zm4.145 22.182l-5.974-7.991H18.288a1.222 1.222 0 01-1.219-1.224 1.22 1.22 0 011.219-1.223h10.973v-2.447H9.754v3.67c0 .264-.086.522-.244.734l-6.34 8.481a3.717 3.717 0 00-.706 1.795h34.087a3.711 3.711 0 00-.706-1.795zm.732 4.242H2.439v17.983h23.107a9.705 9.705 0 013.639-3.705l7.392-4.282v-9.996zm.446 12.563l-6.618 3.834c-3.477 2.014-4.708 6.481-2.677 10.028a7.299 7.299 0 009.992 2.685l6.618-3.834-7.315-12.713zm18.156-2.043a7.297 7.297 0 00-9.992-2.686l-6.052 3.506 7.315 12.713 6.052-3.507c3.473-2.011 4.708-6.494 2.677-10.026zm-30.795.122h-3.657v3.67a1.22 1.22 0 01-1.219 1.223c-.674 0-1.22-.547-1.22-1.223v-3.67h-3.657a1.22 1.22 0 01-1.219-1.223c0-.675.546-1.223 1.219-1.223h3.657v-3.67c0-.675.546-1.224 1.22-1.224.673 0 1.219.549 1.219 1.224v3.67h3.657c.674 0 1.22.548 1.22 1.223 0 .676-.546 1.223-1.22 1.223zM13.412 15.414a1.223 1.223 0 010 2.447c-.674 0-1.22-.549-1.22-1.224 0-.676.546-1.223 1.22-1.223z"/></svg><svg viewBox="0 0 19 20" id="sheeld" xmlns="http://www.w3.org/2000/svg"><path fill-rule="evenodd" fill="#FF6B00" d="M9.753 19.963A.944.944 0 019.5 20a.938.938 0 01-.253-.037C0 17.068.145 10.207.251 5.199c.012-.536.022-1.049.022-1.538 0-.385.346-.695.773-.695 3.304 0 5.819-.859 7.915-2.702a.834.834 0 011.077 0c2.097 1.843 4.613 2.702 7.917 2.702.427 0 .772.31.772.695 0 .489.011 1 .023 1.538.105 5.007.25 11.869-8.997 14.764zm7.452-14.737a97.564 97.564 0 01-.017-.881c-3.095-.118-5.57-.965-7.688-2.63-2.118 1.665-4.593 2.512-7.687 2.63-.004.285-.011.578-.017.881C1.69 10.261 1.57 15.959 9.5 18.562c7.931-2.603 7.811-8.301 7.705-13.336zm-8.227 7.231a.81.81 0 01-.546.202.81.81 0 01-.547-.202l-2.137-1.929a.65.65 0 010-.987.828.828 0 011.092 0l1.592 1.436 3.728-3.37a.839.839 0 011.093 0 .653.653 0 010 .988l-4.275 3.862z"/></svg><svg viewBox="0 0 70 66" id="star" xmlns="http://www.w3.org/2000/svg"><path fill-rule="evenodd" fill="#FF6B00" d="M29.494 1.612A1.292 1.292 0 0130.599.155a1.298 1.298 0 011.469 1.096l2.058 14.416a1.29 1.29 0 01-1.288 1.468 1.295 1.295 0 01-1.285-1.108L29.494 1.612zm34.265 4.93L62.741 7.55a1.28 1.28 0 000 1.821 1.311 1.311 0 001.839 0l1.017-1.008 1.018 1.008c.254.251.586.377.919.377.333 0 .665-.126.919-.377a1.278 1.278 0 000-1.821l-1.017-1.008 1.018-1.009a1.28 1.28 0 000-1.821 1.307 1.307 0 00-1.839 0L65.597 4.72l-1.018-1.008a1.306 1.306 0 00-1.838 0 1.278 1.278 0 000 1.821l1.018 1.009zM26.042 23.267a1.303 1.303 0 001.822.24 1.28 1.28 0 00.242-1.805L16.631 6.865a1.308 1.308 0 00-1.823-.239 1.28 1.28 0 00-.241 1.805l11.475 14.836zM4.707 11.241l.43.328c.236.18.515.267.791.267a1.3 1.3 0 001.032-.504 1.279 1.279 0 00-.239-1.805l-.43-.328a1.309 1.309 0 00-1.823.237 1.28 1.28 0 00.239 1.805zm-1.098 15.96a1.296 1.296 0 00-1.459 1.107 1.29 1.29 0 001.118 1.446l13.293 1.744a1.296 1.296 0 001.459-1.108 1.29 1.29 0 00-1.118-1.445L3.609 27.201zm5.335-12.733l12.635 9.619c.237.18.515.267.792.267a1.3 1.3 0 001.031-.503 1.28 1.28 0 00-.238-1.806l-12.636-9.619a1.307 1.307 0 00-1.822.237 1.279 1.279 0 00.238 1.805zM36.9 17.256a1.297 1.297 0 001.463-1.103l1.991-14.541A1.29 1.29 0 0039.24.164a1.295 1.295 0 00-1.462 1.101l-1.991 14.542a1.288 1.288 0 001.113 1.449zm29.632 18.198l-17.828-2.338a1.298 1.298 0 00-1.459 1.108 1.29 1.29 0 001.118 1.445l17.828 2.339A1.297 1.297 0 0067.65 36.9a1.29 1.29 0 00-1.118-1.446zm1.124-7.098a1.296 1.296 0 00-1.457-1.108l-13.376 1.734a1.29 1.29 0 00-1.12 1.444 1.295 1.295 0 001.457 1.109L66.536 29.8a1.289 1.289 0 001.12-1.444zm-8.354-15.895l-12.585 9.552a1.279 1.279 0 00-.241 1.805 1.3 1.3 0 001.033.505c.275 0 .553-.086.789-.265l12.585-9.552a1.28 1.28 0 00.241-1.805 1.308 1.308 0 00-1.822-.24zm-3.477-6.846a1.308 1.308 0 001.823-.236l.115-.147a1.28 1.28 0 00-.238-1.806 1.307 1.307 0 00-1.823.236l-.115.148a1.279 1.279 0 00.238 1.805zm2.314-2.985a1.3 1.3 0 001.822-.235l.122-.155a1.28 1.28 0 00-.238-1.807 1.308 1.308 0 00-1.822.235l-.122.157a1.279 1.279 0 00.238 1.805zM42.016 23.432c.236.18.514.266.791.266.39 0 .775-.173 1.031-.502L55.269 8.461a1.28 1.28 0 00-.238-1.806 1.31 1.31 0 00-1.823.236L41.777 21.627a1.279 1.279 0 00.239 1.805zM2.725 8.107a1.28 1.28 0 00-.239-1.806L2.26 6.13a1.307 1.307 0 00-1.823.237 1.278 1.278 0 00.239 1.804l.226.173a1.306 1.306 0 001.823-.237zm40.467 34.519a1.285 1.285 0 01-.515 1.364 1.31 1.31 0 01-1.468.017l-6.089-4.022-6.563 4.044a1.307 1.307 0 01-1.467-.063 1.283 1.283 0 01-.471-1.379l1.98-6.978-5.911-4.934a1.282 1.282 0 01-.392-1.403 1.297 1.297 0 011.177-.869l7.313-.291 2.91-7.094a1.304 1.304 0 012.423.038l2.539 6.8 7.71.549c.535.038.991.399 1.149.906a1.282 1.282 0 01-.437 1.39l-5.743 4.492 1.855 7.433zm-4.123-8.94l3.771-2.95-5.203-.372a1.297 1.297 0 01-1.126-.837l-1.668-4.465-1.964 4.788a1.301 1.301 0 01-1.152.802l-4.803.191 3.99 3.33c.39.326.552.847.414 1.333l-1.301 4.585 4.43-2.731a1.313 1.313 0 011.408.022l3.999 2.642-1.252-5.018a1.282 1.282 0 01.457-1.32zm21.505 30.001a1.307 1.307 0 00-1.822-.24 1.28 1.28 0 00-.241 1.806l.188.243a1.304 1.304 0 001.823.238 1.28 1.28 0 00.24-1.805l-.188-.242zM3.629 23.517l1.018-1.008 1.017 1.008a1.3 1.3 0 00.919.377c.333 0 .666-.125.92-.377a1.281 1.281 0 000-1.822l-1.018-1.007 1.018-1.009a1.28 1.28 0 000-1.821 1.31 1.31 0 00-1.839 0l-1.017 1.009-1.018-1.009a1.31 1.31 0 00-1.839 0 1.28 1.28 0 000 1.821l1.018 1.009-1.017 1.007a1.28 1.28 0 000 1.822 1.31 1.31 0 001.838 0zm54.445 36.934l-.188-.244a1.307 1.307 0 00-1.822-.237 1.279 1.279 0 00-.241 1.805l.188.243a1.3 1.3 0 001.032.504c.276 0 .554-.087.79-.266.57-.433.678-1.241.241-1.805zm10.4-14.897l1.018-1.008a1.277 1.277 0 000-1.82 1.308 1.308 0 00-1.838 0l-1.018 1.008-1.018-1.009a1.309 1.309 0 00-1.838 0 1.278 1.278 0 000 1.821l1.018 1.008-1.018 1.008a1.278 1.278 0 000 1.821 1.308 1.308 0 001.838 0l1.018-1.008 1.018 1.008a1.3 1.3 0 00.919.378 1.3 1.3 0 00.919-.378 1.278 1.278 0 000-1.821l-1.018-1.008zm-7.619 5.187l-12.112-9.222a1.308 1.308 0 00-1.823.236 1.28 1.28 0 00.238 1.805l12.113 9.222a1.302 1.302 0 001.823-.236 1.279 1.279 0 00-.239-1.805zm-12.085-2.32a1.308 1.308 0 00-1.822-.239 1.281 1.281 0 00-.242 1.806l6.463 8.355a1.3 1.3 0 001.033.505c.275 0 .553-.087.789-.266.57-.433.678-1.24.242-1.804l-6.463-8.357zm-25.843-6.73a1.308 1.308 0 00-1.822-.239L8.917 50.703a1.279 1.279 0 00-.241 1.805 1.3 1.3 0 001.032.504c.276 0 .554-.087.79-.266l12.188-9.25c.57-.432.678-1.241.241-1.805zM9.715 58.748a1.31 1.31 0 00-1.839 0l-1.018 1.008-1.017-1.008a1.31 1.31 0 00-1.839 0 1.278 1.278 0 000 1.821l1.018 1.007-1.018 1.009a1.28 1.28 0 000 1.822 1.31 1.31 0 001.838 0l1.018-1.009 1.018 1.009a1.307 1.307 0 001.838 0 1.28 1.28 0 000-1.822l-1.017-1.009 1.017-1.007a1.28 1.28 0 00.001-1.821zm12.716-24.527a1.3 1.3 0 00-1.457-1.11L3.263 35.408a1.29 1.29 0 00-1.12 1.443 1.296 1.296 0 001.458 1.11l17.71-2.297a1.289 1.289 0 001.12-1.443zm15.932 15.1a1.3 1.3 0 00-1.463-1.102 1.288 1.288 0 00-1.113 1.448l1.991 14.541a1.296 1.296 0 001.462 1.103 1.29 1.29 0 001.114-1.448l-1.991-14.542zm-5.341-.969a1.3 1.3 0 00-1.47 1.095l-2.058 14.416a1.29 1.29 0 001.289 1.468c.637 0 1.193-.465 1.285-1.107l2.058-14.416a1.29 1.29 0 00-1.104-1.456zm-10.194-.188a1.308 1.308 0 00-1.822.236l-6.475 8.348a1.279 1.279 0 00.238 1.805 1.302 1.302 0 001.823-.236l6.475-8.346a1.281 1.281 0 00-.239-1.807z"/></svg><svg viewBox="0 0 21 24" id="tel" xmlns="http://www.w3.org/2000/svg"><path fill-rule="evenodd" fill="#E87845" d="M17.981 15.13c-.428-.564-.987-.911-1.615-.988-.623-.073-1.254.116-1.828.566l-1.797 1.388a9.572 9.572 0 00-.365-.25c-.171-.114-.333-.219-.468-.33-1.382-1.125-2.593-2.524-3.702-4.275-.535-.867-.878-1.591-1.103-2.306.462-.326.896-.67 1.317-1.003.159-.12.319-.251.478-.374 1.195-.926 1.364-2.294.431-3.474L8.116 2.543a18.02 18.02 0 01-.412-.534A23.22 23.22 0 006.867.957C6.436.414 5.88.086 5.262.011c-.618-.075-1.247.11-1.814.528l-.011.009-1.935 1.516a3.695 3.695 0 00-1.389 2.2C-.19 5.717.077 7.135.3 8.074c.549 2.295 1.523 4.476 3.081 6.88a23.963 23.963 0 007.174 7.133c1.097.688 2.572 1.527 4.296 1.847.105.015.216.036.317.047 1.17.144 2.205-.151 3.077-.888.006-.008.017-.013.024-.025.302-.281.641-.532.998-.799.244-.179.493-.367.739-.568.565-.458.904-1.025.98-1.646.077-.623-.117-1.253-.566-1.819l-2.439-3.106zm1.159 5.512c-.005 0-.006.003 0 0-.224.185-.45.354-.694.539-.368.27-.743.554-1.102.883-.579.484-1.213.663-2.003.569-.076-.011-.157-.02-.233-.034-1.492-.281-2.818-1.031-3.805-1.658-2.696-1.724-4.971-3.987-6.757-6.716-1.471-2.276-2.39-4.324-2.901-6.468-.316-1.312-.368-2.303-.178-3.215a2.326 2.326 0 01.884-1.409L4.29 1.632c.277-.201.556-.293.814-.264.319.04.554.263.696.444.004.007.009.01.013.019.274.32.531.653.801 1.009.137.18.279.359.421.547l1.213 1.536c.47.597.41 1.092-.193 1.555-.165.132-.325.261-.489.383a27.85 27.85 0 01-1.423 1.071c-.012.008-.022.01-.029.02-.489.379-.46.813-.404 1.11l.009.046c.253.909.659 1.783 1.309 2.846l.004.003c1.186 1.885 2.496 3.396 3.995 4.612.192.155.391.29.581.413.172.112.333.219.469.327.019.012.037.032.056.041.162.109.319.166.486.189.421.053.716-.179.813-.254l1.945-1.508c.193-.15.492-.321.811-.287.314.042.548.268.684.46l.009.007 2.448 3.111c.459.577.393 1.105-.189 1.574z"/></svg><svg viewBox="0 0 61 61" id="use1" xmlns="http://www.w3.org/2000/svg"><path fill-rule="evenodd" fill="#F64D01" d="M42.541 28.346c.222.221.35.529.35.842a1.197 1.197 0 01-1.192 1.192 1.197 1.197 0 01-1.191-1.192 1.193 1.193 0 011.191-1.192c.313 0 .621.128.842.35zm-.842 32.652c-10.643 0-19.301-8.658-19.301-19.301a1.19 1.19 0 112.383 0c0 8.929 6.952 16.262 15.726 16.876V33.954a1.192 1.192 0 112.383 0v24.619c8.775-.613 15.727-7.947 15.727-16.876 0-9.328-7.589-16.918-16.918-16.918-1.365 0-2.72.164-4.033.485a19.219 19.219 0 01-4.717 7.684A19.174 19.174 0 0119.301 38.6a19.174 19.174 0 01-13.648-5.652A19.18 19.18 0 010 19.299 19.175 19.175 0 015.653 5.652 19.172 19.172 0 0119.301-.002a19.171 19.171 0 0113.648 5.654 19.172 19.172 0 015.652 13.647c0 1.151-.1 2.287-.296 3.398a19.337 19.337 0 013.394-.301C52.341 22.396 61 31.055 61 41.697c0 10.643-8.658 19.301-19.301 19.301zM31.264 7.337a16.807 16.807 0 00-11.963-4.956c-4.12 0-8.014 1.464-11.091 4.142l20.281 20.281a1.192 1.192 0 01-1.685 1.685L6.525 8.209a16.792 16.792 0 00-4.142 11.09c0 4.519 1.759 8.768 4.955 11.964a16.81 16.81 0 0011.963 4.954c4.519 0 8.768-1.76 11.963-4.954a16.81 16.81 0 004.955-11.964c0-4.519-1.76-8.767-4.955-11.962zm-2.374 3.565c-.305 0-.61-.117-.843-.349a12.42 12.42 0 00-9.272-3.612 1.192 1.192 0 01-.101-2.38 14.786 14.786 0 0111.058 4.307 1.192 1.192 0 01-.842 2.034zM15.223 7.619a1.195 1.195 0 01-1.513-.722 1.19 1.19 0 01.717-1.524c.011-.004.031-.01.042-.015a1.193 1.193 0 01.754 2.261z"/></svg><svg viewBox="0 0 62 61" id="use2" xmlns="http://www.w3.org/2000/svg"><path fill-rule="evenodd" fill="#FA590E" d="M52.927 43.648v-9.924a1.19 1.19 0 112.382 0v9.924a1.19 1.19 0 01-2.382 0zm1.19 5.715a1.194 1.194 0 01-1.19-1.189 1.196 1.196 0 011.19-1.193 1.195 1.195 0 011.191 1.193 1.193 1.193 0 01-1.191 1.189zM20.666 30.748c.222.221.349.529.349.841 0 .314-.128.622-.349.842-.221.222-.529.35-.842.35a1.2 1.2 0 01-.842-.35 1.198 1.198 0 01-.349-.842c0-.312.128-.62.349-.841.222-.221.529-.349.842-.349.313 0 .621.128.842.349zm34.406 30.248H24.587a5.96 5.96 0 01-5.954-5.954V36.843a1.192 1.192 0 012.382 0v18.199a3.578 3.578 0 003.572 3.574h30.485a3.578 3.578 0 003.573-3.574V22.566a24 24 0 01-4.405 1.165 25.434 25.434 0 01-4.199.345c-3.027 0-6.7-.527-10.669-2.23-8.957-3.84-16.282-1.239-18.357-.33v3.629a1.191 1.191 0 01-2.382 0V1.218c0-.658.534-1.192 1.191-1.192h40.012c.657 0 1.19.534 1.19 1.192v53.824a5.96 5.96 0 01-5.954 5.954zm3.573-58.587h-37.63v16.539a23.828 23.828 0 014.427-1.174c3.436-.576 8.806-.715 14.868 1.883 4.407 1.89 8.928 2.475 13.437 1.741 2.319-.378 4.038-1.026 4.898-1.401V2.409zM10.234 60.998c-4.071 0-7.383-3.312-7.383-7.383 0-4.072 3.312-7.384 7.383-7.384s7.383 3.312 7.383 7.384c0 4.071-3.312 7.383-7.383 7.383zm-1.191-12.24a5.01 5.01 0 00-3.81 4.857 5.01 5.01 0 003.81 4.857v-9.714zm2.382 0v9.714a5.01 5.01 0 003.811-4.857 5.008 5.008 0 00-3.811-4.857zM7.44 41.702a7.335 7.335 0 01-5.221-2.162c-2.879-2.879-2.879-7.563 0-10.442 2.879-2.878 7.563-2.878 10.441 0a7.332 7.332 0 012.163 5.221 7.333 7.333 0 01-2.163 5.221 7.334 7.334 0 01-5.22 2.162zm-3.537-3.846a4.973 4.973 0 003.537 1.465c.929 0 1.819-.253 2.594-.724l-6.871-6.87a5.01 5.01 0 00.74 6.129zm7.073-7.074a4.986 4.986 0 00-3.536-1.463c-.9 0-1.799.242-2.593.724l6.871 6.87a4.973 4.973 0 00.723-2.594c0-1.337-.52-2.592-1.465-3.537z"/></svg><svg viewBox="0 0 60 60" id="use3" xmlns="http://www.w3.org/2000/svg"><path fill-rule="evenodd" fill="#FA4F01" d="M54.88 15.225c.218.217.343.519.343.828 0 .308-.125.61-.343.828a1.176 1.176 0 01-1.657 0 1.18 1.18 0 01-.344-.828 1.177 1.177 0 011.172-1.172c.309 0 .611.126.829.344zm-6.492 20.398a4.458 4.458 0 014.453 4.454 4.458 4.458 0 01-4.453 4.452 4.457 4.457 0 01-4.453-4.452 4.457 4.457 0 014.453-4.454zm0 6.563a2.111 2.111 0 002.109-2.109c0-1.164-.946-2.11-2.109-2.11a2.111 2.111 0 00-2.109 2.11c0 1.163.946 2.109 2.109 2.109zm0-18.751a4.46 4.46 0 014.453 4.454 4.459 4.459 0 01-4.453 4.454 4.458 4.458 0 01-4.453-4.454 4.459 4.459 0 014.453-4.454zm0 6.563a2.111 2.111 0 002.109-2.109 2.11 2.11 0 00-2.109-2.109 2.11 2.11 0 00-2.109 2.109c0 1.163.946 2.109 2.109 2.109zM37.45 23.435a4.46 4.46 0 014.454 4.454 4.459 4.459 0 01-4.454 4.454 4.459 4.459 0 01-4.453-4.454 4.46 4.46 0 014.453-4.454zm0 6.563c1.163 0 2.11-.946 2.11-2.109a2.11 2.11 0 00-4.219 0c0 1.163.946 2.109 2.109 2.109zm-2.452 21.687c.218.218.343.519.343.827 0 .308-.125.61-.343.83a1.175 1.175 0 01-2.001-.83 1.178 1.178 0 011.172-1.171c.309 0 .611.125.829.344zm2.452-16.062a4.458 4.458 0 014.454 4.454 4.458 4.458 0 01-4.454 4.452 4.458 4.458 0 01-4.453-4.452 4.458 4.458 0 014.453-4.454zm0 6.563c1.163 0 2.11-.946 2.11-2.109 0-1.164-.947-2.11-2.11-2.11a2.111 2.111 0 00-2.109 2.11c0 1.163.946 2.109 2.109 2.109zm-10.937-6.563a4.458 4.458 0 014.453 4.454 4.458 4.458 0 01-4.453 4.452 4.457 4.457 0 01-4.453-4.452 4.457 4.457 0 014.453-4.454zm0 6.563a2.111 2.111 0 002.109-2.109c0-1.164-.946-2.11-2.109-2.11a2.111 2.111 0 00-2.109 2.11c0 1.163.946 2.109 2.109 2.109zm0-18.751a4.46 4.46 0 014.453 4.454 4.459 4.459 0 01-4.453 4.454 4.458 4.458 0 01-4.453-4.454 4.459 4.459 0 014.453-4.454zm0 6.563a2.111 2.111 0 002.109-2.109 2.11 2.11 0 00-2.109-2.109 2.11 2.11 0 00-2.109 2.109c0 1.163.946 2.109 2.109 2.109zm-6.484-2.109a4.459 4.459 0 01-4.454 4.454 4.459 4.459 0 01-4.453-4.454 4.46 4.46 0 014.453-4.454 4.46 4.46 0 014.454 4.454zm-6.563 0c0 1.163.946 2.109 2.109 2.109 1.164 0 2.11-.946 2.11-2.109a2.11 2.11 0 00-4.219 0zm42.08 32.109H4.453A4.458 4.458 0 010 55.545v-3.032c0-.647.525-1.173 1.172-1.173h3.17a9.583 9.583 0 01-3.349-7.279c0-5.299 4.311-9.609 9.61-9.609 5.298 0 9.609 4.31 9.609 9.609 0 2.908-1.3 5.517-3.348 7.279h11.709a1.173 1.173 0 010 2.345H2.344v1.86c0 1.163.946 2.11 2.109 2.11h47.172a4.423 4.423 0 01-.533-2.111v-1.859H38.633a1.172 1.172 0 010-2.345h13.631c.647 0 1.172.526 1.172 1.173v3.031c0 1.164.946 2.111 2.11 2.111s2.11-.947 2.11-2.111v-44.53a3.519 3.519 0 00-3.516-3.515h-5.585v1.465a3.52 3.52 0 01-3.516 3.515 3.52 3.52 0 01-3.516-3.515V7.499H21.836v1.465a3.52 3.52 0 01-3.516 3.515 3.52 3.52 0 01-3.515-3.515V7.455c-.1.027-.204.044-.313.044H9.823a3.519 3.519 0 00-3.516 3.515v3.867h42.248a1.172 1.172 0 010 2.343H6.307v13.752a1.172 1.172 0 01-2.344 0V11.014a5.866 5.866 0 015.86-5.859h4.669c.109 0 .213.015.313.043V3.514A3.52 3.52 0 0118.32-.002a3.52 3.52 0 013.516 3.516v1.641h19.687V3.514a3.52 3.52 0 013.516-3.516 3.52 3.52 0 013.516 3.516v1.641h5.585A5.866 5.866 0 0160 11.014v44.53a4.458 4.458 0 01-4.454 4.454zm-44.943-8.672c4.006 0 7.265-3.259 7.265-7.265 0-4.007-3.259-7.265-7.265-7.265s-7.266 3.258-7.266 7.265c0 4.006 3.26 7.265 7.266 7.265zm8.889-47.812c0-.646-.526-1.172-1.172-1.172-.646 0-1.172.526-1.172 1.172v5.45c0 .645.526 1.172 1.172 1.172.646 0 1.172-.527 1.172-1.172v-5.45zm26.719 0c0-.646-.526-1.172-1.172-1.172-.646 0-1.172.526-1.172 1.172v5.45c0 .645.526 1.172 1.172 1.172.646 0 1.172-.527 1.172-1.172v-5.45zM8 43.717l1.304 1.304 3.816-3.816a1.172 1.172 0 011.658 1.656l-4.645 4.647a1.176 1.176 0 01-1.658 0l-2.133-2.133A1.172 1.172 0 118 43.717z"/></svg></svg>